<svg xmlns="http://www.w3.org/2000/svg" viewBox="0 0 1200.37 738.88"><defs><style>.cls-1{fill:none;}.cls-2{fill:#900;}</style></defs><title>KCs Garage Kitchen n Bar</title><g id="Wings"><path d="M947.59,621.77c-43-41.37-64.93-117.32-108.15-117.32-16.78,0-31.86,15.33-52.86,32.07,11.59,1.43,21.54,4.84,30.21,10.92,14.39,10.11,58.68,95.35,70.65,95.35,1.51,0,2-1.1,2-2.61,0-.35,0-.7,0-1,0,0,.2-2.91.2-5.33,0-26.59-16.14-45.46-23.78-58.9l1-.95,1.9,1.29c1,1,67.73,74,99.07,67.71C974.86,641.56,953,627,947.59,621.77Z" transform="translate(-18.39 -23.91)"/><path d="M1024.52,573.75c13.27,0,21.48-2.22,21.48-3.8a.55.55,0,0,0-.17-.38s-16-2.37-16-2.37c-44.47-7.19-97.36-80.55-160.13-80.55a45.69,45.69,0,0,0-28.28,9.15c60.15,3.91,99.28,128.27,123.9,128.27a.84.84,0,0,0,.5-.14c.11-.08.18-.47.18-1.13,0-6.66-6.53-41.29-37.25-73.95-2.19-2.33-5.1-4.17-6.31-7.45a7.13,7.13,0,0,1,.9-.19S975,573.75,1024.52,573.75Z" transform="translate(-18.39 -23.91)"/><path d="M1055.38,232.78q1.31-.08,2.57-.08a35.75,35.75,0,0,1,14.34,2.94,6.45,6.45,0,0,1,.81,3.16,11.2,11.2,0,0,1-.76,3.72l-3.13,4.45c32.17-5.83,140.07-49.45,111.13-118.27a1.39,1.39,0,0,0-.69-.23c-.59,0-.79.71-1.08,1.23-2.5,44.66-34.89,74.25-61.19,78.64,17.65-14.74,36.05-34.6,36.05-67,0-31.32-18.21-57.24-24.75-58,1.72,9.23,3.11,24,1.7,34.31C1118.28,187.26,1060.27,224.87,1055.38,232.78Z" transform="translate(-18.39 -23.91)"/><path d="M976.33,506.63c.21,0,.42,0,.63,0a.86.86,0,0,0,.55-.17c24.63,1.44,57,13,86.4,13a98.77,98.77,0,0,0,42.5-9.08s-40.27-.37-60.11-3.24c-67.13-9.73-95.87-45.93-133.09-45.93-17,0-29.26,7.67-42.41,15.91q2.45-.12,4.83-.12c69,0,105.25,78,166.91,80.35l-6-8.89c-17.59-26-50.07-34.83-59-40.92a2.83,2.83,0,0,0-1.51-.85A1,1,0,0,1,976.33,506.63Z" transform="translate(-18.39 -23.91)"/><path d="M1047.72,413.11c15.81-6.59,27.23-7.15,37.59-7.15,7.68,0,15.36.41,23,.41,3.68,0,7.35-.09,11-.38,26.23-2,37.85-24.87,37.85-27.53,0,0-17,8.73-45.94,8.73-11,0-22.53-.64-31.46-.64-52.73,0-69.61,15-97.18,21.52l8.69,5.92a15,15,0,0,1,1.21,5.76,14,14,0,0,1-1,5.14c-2.61,2-4.53,4.85-7.53,6.67l1.54,0c9.77,0,33.2,2.23,43,3.28,13.11,4,29.69,5.88,45.26,5.88,22.3,0,42.52-3.9,47.55-11.15a58.62,58.62,0,0,1-9.24.73c-10.1,0-19.64-2.58-28.9-6.39C1072.45,419.45,1047.72,413.11,1047.72,413.11Z" transform="translate(-18.39 -23.91)"/><path d="M1031.77,356.62c2.33,2.86,3.56,4.63,3.56,6,0,4.19-17,7.25-30.13,10.77,5.47,1.54,7.74,5,7.74,8.08,0,3.48-3.95,5.61-4.85,9.64,106.14-21.13,131.51-1.49,157.63-28.68a72.48,72.48,0,0,1-24.74,4.55c-13.34,0-28.48-5.53-48.84-5.53q-3,0-5.93.18a9.76,9.76,0,0,1-1.84.43,2.18,2.18,0,0,1-.52-.06l.3,0c1,0,1.53-.72,2.14-1.26,21.12-7.51,60.6,0,85.38-16.94,6.67-4.55,15.64-14.9,17-21h-.62a1.62,1.62,0,0,0-.83.15C1157.71,340.66,1039.19,355.39,1031.77,356.62Z" transform="translate(-18.39 -23.91)"/><path d="M1086.08,193.77c4.48-3.92,24.37-28.76,24.37-65,0-17-4.36-36.42-16.69-57.4A215.55,215.55,0,0,1,1095,94.16c0,32.64-7.74,68.38-32.6,85C1074,179.26,1084.34,179.92,1086.08,193.77Z" transform="translate(-18.39 -23.91)"/><path d="M781.11,695.27c3.11.32,13.67-47.63,13.67-57.31,0-14.94-3.66-30.75-6.92-35.84.27-1.91.92-2.52,1.69-2.52.42,0,71.6,65.18,93.3,63.17,5.26-.49-62.84-111-90.74-115.73-16.33-2.75-45.35,15-48.1,20" transform="translate(-18.39 -23.91)"/><path d="M1156.88,273.28c-41.48,13.78-100.43,17.06-114.72,30.26,4.13.78,7.47,2.53,10.87,4.08,4.06,1.85,6.58,5.4,6.58,8.78,0,6-11.82,19.08-39.85,25.78.32,1.37,1.56,1.27,2.71,1.48a67,67,0,0,0,12.61,1.2c45.88,0,162-27.3,165.7-63a144.92,144.92,0,0,1-74.29,21.53c-7.76,0-13.33-.83-15.67-1.73,19.8-8.27,38.76-10.17,58.39-18,30.88-12.27,41.14-41.23,41.14-44.83a1.3,1.3,0,0,0,0-.16S1195.17,260.56,1156.88,273.28Z" transform="translate(-18.39 -23.91)"/><path d="M1218.76,217.7a.29.29,0,0,0-.09-.24h0c-1.46,0-76,37.2-86,37.2-.53,0-.88-.1-1-.32L1164,237.69c32.41-17,52.81-40,52.81-76.43,0-5.69-.8-9.28-1.67-9.28,0,0-8.94,34.19-43,59.58-52,38.79-108.72,47.48-124.48,60.23h9c3.61,0,5.95,0,5.95,0,5.27,0,6.74,3,6.74,4.9,0,2.94-4.25,6.53-8.88,11.17,2.5-.17,4.19,0,5.67-.42,31.22-9.82,74.46-9.76,108.92-28.77C1200.83,244.42,1218.76,220.57,1218.76,217.7Z" transform="translate(-18.39 -23.91)"/><path class="cls-1" d="M1019.3,234.71C954,366.38,855,346.42,855,396.71c0,21.52,42.48,32.26,47.93,22.68C900.82,418,872,420.92,872,399.06c0-10.24.19-22.22,21.22-23.4C945.47,372.73,1004.3,313,1019.3,234.71Z" transform="translate(-18.39 -23.91)"/><path d="M1140.63,430s-62.73,28-90,16.5c-17.69-7.44-21.72-7.5-50.5-7.5-12.58,0-62.47,8.61-58.75,3.25,16.55-5.86,32.75-10.87,32.75-21.5,0-9.59-25.52-24.21-19.75-24.12,14.7.22,42.75-4,42.75-13.88,0-9.08-27.56-14.22-30.39-15,5.17-1.48,51.89-3.55,51.89-12.79,0-6.65-26.21-12.45-22.69-14,7.73-3.41,41.69-11.56,41.69-21,0-8.5-40.61-11.74-36.17-12.68,27.09-5.74,42.76-19.08,42.76-22.49,0-8.54-27.24-7.57-23.67-9.58,7-3.92,38.27-18.81,38.27-30.71,0-9.74-12.88-11.7-17.89-11.85-3.37-.1-.36-.63-.06-.86,26.94-19.89,32-39.37,32-41.28,0-6.07-25.71,4.72-25.67,3.72,3.37-76.36-70.14-136.83-96.16-137a.47.47,0,0,0-.25.87c22.09,14.13,52.08,66.71,52.08,113.09,0,17.65-6.74,32-18.18,54.33C914.55,362.79,824.55,331.12,824.55,397c0,57.64,63.22,50.84,76,36.76,4.36-3.79,6.33-12.82,6.33-17.5,0-8.16-4.54-11.54-12.33-13.3-7.21-1.62-11.7,3.85-13.08,8-.33,1-4.72-7-3.36-13.25,1.49-6.9,15.44-9.8,25.77-7.46,12.9,2.91,19.67,7.24,19.67,24,0,20.13-17.32,31.71-22.17,36.25-.33.31,3.92,1.12,4.37,1.12,62.4.28,93.88,62.94,193.38,47.88,5.31-.8-23.41-8.91-54.26-25.48-31.56-16.95-20.4-7-32.77-11.52-8.94-3.3,51.22.06,52.21.25C1098.88,469.27,1144.72,430,1140.63,430ZM892.22,375.93c-21,1.18-29.83,16.33-29.33,28.3,1.07,25.7,38.57,13.8,29.74,20.15-9.28,6.67-46.74-4.42-46.74-24.45,0-49.9,82.56-26.57,164.33-162C1018.94,223.49,974.75,371.31,892.22,375.93Z" transform="translate(-18.39 -23.91)"/><path d="M269.37,640.82c31.33,6.25,98.06-66.74,99.07-67.71l1.9-1.29,1,.95c-7.64,13.44-23.78,32.32-23.78,58.9,0,2.42.2,5.31.2,5.33,0,.33,0,.68,0,1,0,1.52.49,2.61,2,2.61,12,0,56.26-85.25,70.65-95.35,8.67-6.09,18.62-9.5,30.21-10.92-21-16.74-36.08-32.07-52.86-32.07-43.22,0-65.15,75.94-108.15,117.32C284.15,624.83,262.29,639.41,269.37,640.82Z" transform="translate(-18.39 -23.91)"/><path d="M313.83,539.07a7.13,7.13,0,0,1,.9.19c-1.21,3.28-4.11,5.12-6.31,7.45-30.73,32.66-37.25,67.29-37.25,73.95,0,.66.06,1,.18,1.13a.84.84,0,0,0,.5.14c24.63,0,63.76-124.37,123.9-128.27a45.69,45.69,0,0,0-28.28-9.15c-62.77,0-115.66,73.36-160.13,80.55,0,0-16,2.35-16,2.37a.55.55,0,0,0-.17.38c0,1.58,8.21,3.8,21.48,3.8C262.16,571.6,313.83,539.07,313.83,539.07Z" transform="translate(-18.39 -23.91)"/><path d="M99.46,114.31c-1.41-10.32,0-25.08,1.7-34.31-6.54.81-24.75,26.73-24.75,58,0,32.44,18.4,52.3,36.05,67-26.31-4.39-58.69-34-61.19-78.64-.3-.53-.49-1.23-1.08-1.23a1.39,1.39,0,0,0-.69.23c-28.95,68.82,79,112.43,111.13,118.27-2.67-3.79-3.88-4.88-3.88-8.17a6.45,6.45,0,0,1,.81-3.16,35.75,35.75,0,0,1,14.34-2.94q1.26,0,2.57.08C169.58,221.62,111.57,184,99.46,114.31Z" transform="translate(-18.39 -23.91)"/><path d="M261.16,504.53a2.83,2.83,0,0,0-1.51.85c-8.94,6.09-41.43,14.93-59,40.92l-6,8.89c61.66-2.35,97.95-80.35,166.91-80.35q2.39,0,4.83.12c-13.14-8.23-25.42-15.91-42.41-15.91-37.22,0-66,36.2-133.09,45.93-19.84,2.88-60.11,3.24-60.11,3.24a98.77,98.77,0,0,0,42.5,9.08c29.38,0,61.77-11.52,86.4-13a.86.86,0,0,0,.55.17c.21,0,.42,0,.63,0A1,1,0,0,1,261.16,504.53Z" transform="translate(-18.39 -23.91)"/><path d="M146.61,420.64c-9.26,3.81-18.8,6.39-28.9,6.39a58.62,58.62,0,0,1-9.24-.73c5,7.25,25.25,11.15,47.55,11.15,15.57,0,32.15-1.9,45.26-5.88,9.83-1.06,33.26-3.28,43-3.28l1.54,0c-3-1.81-4.92-4.62-7.53-6.67a14,14,0,0,1-1-5.14,15,15,0,0,1,1.21-5.76l8.69-5.92c-27.57-6.47-44.46-21.52-97.18-21.52-8.93,0-20.51.64-31.46.64-29,0-45.94-8.73-45.94-8.73,0,2.65,11.62,25.52,37.85,27.53,3.68.28,7.35.38,11,.38,7.68,0,15.37-.41,23-.41,10.35,0,21.78.57,37.59,7.15C182.13,409.85,157.41,416.19,146.61,420.64Z" transform="translate(-18.39 -23.91)"/><path d="M42.62,319.65a1.62,1.62,0,0,0-.83-.15h-.62c1.39,6.14,10.35,16.49,17,21,24.78,16.9,64.25,9.43,85.38,16.94.61.54,1.12,1.26,2.14,1.26l.3,0a2.18,2.18,0,0,1-.52.06,9.76,9.76,0,0,1-1.84-.43q-3-.19-5.93-.18c-20.37,0-35.5,5.53-48.84,5.53a72.48,72.48,0,0,1-24.74-4.55c26.12,27.18,51.49,7.54,157.63,28.68-.9-4-4.85-6.16-4.85-9.64,0-3.06,2.27-6.53,7.74-8.08-13.14-3.51-30.13-6.58-30.13-10.77,0-1.33,1.24-3.1,3.56-6C190.67,352.13,72.15,337.41,42.62,319.65Z" transform="translate(-18.39 -23.91)"/><path d="M167.47,175.95c-24.86-16.66-32.6-52.4-32.6-85a215.55,215.55,0,0,1,1.22-22.78c-12.33,21-16.69,40.44-16.69,57.4,0,36.24,19.88,61.07,24.37,65C145.52,176.67,155.82,176,167.47,175.95Z" transform="translate(-18.39 -23.91)"/><path d="M456,693.12c-3.11.32-13.67-47.63-13.67-57.31,0-14.94,3.66-30.75,6.92-35.84-.27-1.91-.92-2.52-1.69-2.52-.42,0-71.6,65.18-93.3,63.17-5.26-.49,62.84-111,90.74-115.73,16.33-2.75,45.35,15,48.1,20" transform="translate(-18.39 -23.91)"/><path d="M82.78,272.18C124.26,286,183.21,289.24,197.5,302.44c-4.13.78-7.47,2.53-10.87,4.08-4.06,1.85-22.44,8.56-22.44,11.94,0,6,27.68,15.92,55.71,22.62-.32,1.37-1.56,1.27-2.71,1.48a67,67,0,0,1-12.61,1.2c-45.88,0-162-27.3-165.7-63a144.92,144.92,0,0,0,74.29,21.53c7.76,0,13.33-.83,15.67-1.73-19.8-8.27-38.76-10.17-58.39-18C39.56,270.32,29.3,241.35,29.3,237.76a1.3,1.3,0,0,1,0-.16S44.48,259.45,82.78,272.18Z" transform="translate(-18.39 -23.91)"/><path d="M62.13,256.5c34.46,19,77.7,19,108.92,28.77,1.48.47,3.17.26,5.67.42-4.63-4.64-8.88-8.23-8.88-11.17,0-1.92,1.47-4.9,6.74-4.9,0,0,2.33,0,5.95,0h9C169,253.11,111.75,244.26,65,209.41,30.95,184,22,149.84,22,149.84c-.86,0-1.67,3.59-1.67,9.28,0,36.46,20.41,59.46,52.81,76.43l32.41,16.64c-.15.22-.5.32-1,.32-10.07,0-84.58-37.2-86-37.2h0a.29.29,0,0,0-.09.24C18.39,218.42,36.32,242.27,62.13,256.5Z" transform="translate(-18.39 -23.91)"/><path class="cls-1" d="M361.68,373.58c21,1.18,21.22,13.15,21.22,23.4,0,21.86-28.85,19-30.93,20.34,5.45,9.57,47.93-1.16,47.93-22.68,0-50.3-99-30.33-164.33-162C250.57,311,309.4,370.64,361.68,373.58Z" transform="translate(-18.39 -23.91)"/><path d="M89.29,427.87s62.73,28,90,16.5c17.69-7.44,21.72-7.5,50.5-7.5,12.58,0,62.47,8.61,58.75,3.25-16.55-5.86-32.75-10.87-32.75-21.5,0-9.59,25.52-24.21,19.75-24.12-14.7.22-42.75-4-42.75-13.88,0-9.08,27.56-14.22,30.39-15-5.17-1.48-51.89-3.55-51.89-12.79,0-6.65,26.21-12.45,22.69-14-7.73-3.41-41.69-11.56-41.69-21,0-8.5,40.61-11.74,36.17-12.68-27.09-5.74-42.76-19.08-42.76-22.49,0-8.54,27.24-7.57,23.67-9.58-7-3.92-38.27-18.81-38.27-30.71,0-13.65,21.39-10.17,18-12.71-26.94-19.89-32-39.37-32-41.28,0-6.07,25.71,4.72,25.67,3.72-3.37-76.36,70.14-136.83,96.16-137a.47.47,0,0,1,.25.87C257,70.16,227,122.74,227,169.12c0,17.65,6.74,32,18.18,54.33C315.37,360.64,405.37,329,405.37,394.86c0,57.64-63.22,50.84-76,36.76C325,427.83,323,418.8,323,414.12c0-8.16,4.54-11.54,12.33-13.3,7.21-1.62,11.7,3.85,13.08,8,.33,1,4.72-7,3.36-13.25-1.49-6.9-15.44-9.8-25.77-7.46-12.9,2.91-19.67,7.24-19.67,24,0,20.13,17.32,31.71,22.17,36.25.33.31-3.92,1.12-4.37,1.12-62.4.28-93.88,62.94-193.38,47.88-5.31-.8,23.41-8.91,54.26-25.48,31.56-16.95,27.63-7,40-11.52,8.94-3.3-58.44.06-59.43.25C131,467.12,85.21,427.87,89.29,427.87Zm248.42-54.08c21,1.18,29.83,16.33,29.33,28.3-1.07,25.7-38.57,13.8-29.74,20.15,9.28,6.67,46.74-4.42,46.74-24.45,0-49.9-82.56-26.57-164.33-162C211,221.35,255.17,369.16,337.71,373.79Z" transform="translate(-18.39 -23.91)"/></g><g id="Red_Stars" data-name="Red Stars"><path class="cls-2" d="M1137,661.92c5.95-4.57,54.85-40.21,62-45.17-9.89-.43-4.84,0-78.17-1-.94-3.71-23.49-72.17-24.5-72.17,0,0-7.4,27.42-23.5,72.32l-32.44.32c-13,0-31.91,1.06-44.89,1,7.46,5.15,53.09,36,62.33,44.5-16.33,52.94-22.83,73-22.83,73,6.18-4,61.93-43.8,62.75-43.22,6.75,4.75,45.89,34.78,62.42,44.25" transform="translate(-18.39 -23.91)"/><path class="cls-2" d="M178.14,661.92c5.95-4.57,54.85-40.21,62-45.17-9.89-.43-4.84,0-78.17-1-.94-3.71-23.49-72.17-24.5-72.17,0,0-7.4,27.42-23.5,72.32l-32.44.32c-13,0-31.91,1.06-44.89,1,7.46,5.15,53.09,36,62.33,44.5-16.33,52.94-22.83,73-22.83,73,6.18-4,61.93-43.8,62.75-43.22,6.75,4.75,45.89,34.78,62.42,44.25" transform="translate(-18.39 -23.91)"/><path class="cls-2" d="M685,433c-.44-1.52-65-207-66-207-3.24,0-65.8,208.82-66.66,209.82-32-.82-118.67-1.15-220.49-1.48,6.65,6.43,172.65,124.18,173.67,124.54l.05,0c5.69,3.12-60.49,199.47-60.49,203.22,0,0,0,0,0,.05.32.28.54.5.93.5,1.9,0,167.14-122.18,170-122.18S781.65,760.87,783.5,760.87c1.1.59,1.89,1.92,3.43,1.92a3.41,3.41,0,0,0,1.16-.22c-1.76-4.2-59.42-197.85-59.42-199.24L900.53,435C892.68,434.48,904,436.58,685,433Z" transform="translate(-18.39 -23.91)"/></g><g id="Stars"><path d="M629.12,507.15l.07-.14A.82.82,0,0,0,629.12,507.15Z" transform="translate(-18.39 -23.91)"/><path d="M1137,661.92c5.95-4.57,54.85-40.21,62-45.17-9.89-.43-4.84,0-78.17-1-.94-3.71-23.49-72.17-24.5-72.17,0,0-7.4,27.42-23.5,72.32l-32.44.32c-13,0-31.91,1.06-44.89,1,7.46,5.15,53.09,36,62.33,44.5-16.33,52.94-22.83,73-22.83,73,6.18-4,61.93-43.8,62.75-43.22,6.75,4.75,45.89,34.78,62.42,44.25m-83.5-116.33c4.44-10.49,19.33-58.17,19.33-58.17s.5,86.17.5,86.17C1095.47,645.11,1078.39,623.95,1076.67,619.42Zm-64.83,3.5c2.67,1.86,81.67,25.33,82.7,25.73-6,2.55-22.6,8.9-29.37,10.93C1055.92,654.14,1020.86,628.42,1011.83,622.92Zm32.92,100c3.5-5.08,51.83-71.92,51.83-71.92,0,1,.18,15.15.67,33.7C1093.2,688.5,1046.87,722.16,1044.75,722.92Zm104.75-2.42L1099,651.17c1.72.41,28.25,8.75,30.83,9.33m-30.67-12.58c.3,0,18.36-26.94,18.5-27.17,1-.32,61.32-.23,69.48-.08C1190.4,620.67,1103.32,646.81,1099.17,647.92Z" transform="translate(-18.39 -23.91)"/><path d="M606.05,521.53" transform="translate(-18.39 -23.91)"/><circle cx="680.05" cy="499.52" transform="translate(-98.87 841.1) rotate(-61.97)"/><path d="M178.14,661.92c5.95-4.57,54.85-40.21,62-45.17-9.89-.43-4.84,0-78.17-1-.94-3.71-23.49-72.17-24.5-72.17,0,0-7.4,27.42-23.5,72.32l-32.44.32c-13,0-31.91,1.06-44.89,1,7.46,5.15,53.09,36,62.33,44.5-16.33,52.94-22.83,73-22.83,73,6.18-4,61.93-43.8,62.75-43.22,6.75,4.75,45.89,34.78,62.42,44.25m-83.5-116.33c4.44-10.49,19.33-58.17,19.33-58.17s.5,86.17.5,86.17C136.61,645.11,119.53,623.95,117.81,619.42ZM53,622.92c2.67,1.86,81.67,25.33,82.7,25.73-6,2.55-22.6,8.9-29.37,10.93C97.06,654.14,62,628.42,53,622.92Zm32.92,100c3.5-5.08,51.83-71.92,51.83-71.92,0,1,.18,15.15.67,33.7C134.34,688.5,88,722.16,85.89,722.92Zm104.75-2.42-50.5-69.33c1.72.41,28.25,8.75,30.83,9.33m-30.67-12.58c.3,0,18.36-26.94,18.5-27.17,1-.32,61.32-.23,69.48-.08C231.54,620.67,144.46,646.81,140.31,647.92Z" transform="translate(-18.39 -23.91)"/><path class="cls-1" d="M672.15,446.76a1.31,1.31,0,0,0,0-.17c0-8.63-53.84-176.66-54.25-177.65-.44,16.23-.6,41.28-.6,69.4,0,78.46,1.26,180.74,1.27,181.48C624.46,512,660,458.68,672.15,446.76Z" transform="translate(-18.39 -23.91)"/><path class="cls-1" d="M607.76,521.27c0-1-49.05-69.21-50.89-72.16-9.17,0-97.38-2.48-145.93-2.48-16.48,0-28.39.28-31.08,1,6.44,2.75,225.91,73.61,227.88,73.61Z" transform="translate(-18.39 -23.91)"/><path class="cls-1" d="M625.27,527.15s79.75,26.75,80.65,27.25a10.2,10.2,0,0,1,1.36.55,22.46,22.46,0,0,0,5.44,1.2,6,6,0,0,0,1.2-.12c1-.67,141.31-100.79,142.37-104.4l0,0Z" transform="translate(-18.39 -23.91)"/><path class="cls-1" d="M517.61,565.11a.44.44,0,0,1,0,.26c0,7.51-50.54,164-52.7,167.1l.08.08C582.93,568,609.91,531.19,609.91,531.19h0C609.6,531.19,519.77,562.67,517.61,565.11Z" transform="translate(-18.39 -23.91)"/><path class="cls-1" d="M618,534.43h0c.66,1.63.85,23.06.85,45.12,0,24.13-.23,49-.33,49.54,13.14,8.1,130.22,95.12,140.36,103C749.29,716.09,621.46,534.43,618,534.43Z" transform="translate(-18.39 -23.91)"/><path d="M685,433c-.44-1.52-65-207-66-207-3.24,0-65.8,208.82-66.66,209.82-32-.82-118.67-1.15-220.49-1.48,6.65,6.43,172.65,124.18,173.67,124.54l.05,0c5.69,3.12-60.49,199.47-60.49,203.22,0,0,0,0,0,.05.32.28.54.5.93.5,1.9,0,167.14-122.18,170-122.18S781.65,760.87,783.5,760.87c1.1.59,1.89,1.92,3.43,1.92a3.41,3.41,0,0,0,1.16-.22c-1.76-4.2-59.42-197.85-59.42-199.24L900.53,435C892.68,434.48,904,436.58,685,433ZM379.87,447.67c2.69-.75,14.6-1,31.08-1,48.54,0,136.76,2.45,145.93,2.48,1.84,2.95,50.89,71.17,50.89,72.16h0C605.77,521.27,386.3,450.42,379.87,447.67ZM465,732.55l-.08-.08c2.15-3.06,52.7-159.59,52.7-167.1a.44.44,0,0,0,0-.26c2.16-2.43,92-33.92,92.3-33.92h0S582.93,568,465,732.55Zm152.87-463.6c.4,1,54.25,169,54.25,177.65a1.31,1.31,0,0,1,0,.17C660,458.68,624.46,512,618.59,519.82c0-.74-1.27-103-1.27-181.48C617.32,310.22,617.48,285.17,617.92,268.94Zm141,463.19c-10.14-7.92-127.22-94.94-140.36-103,.1-.52.33-25.41.33-49.54,0-22.06-.19-43.49-.85-45.12h0C621.46,534.43,749.29,716.09,758.87,732.14ZM713.93,556a6,6,0,0,1-1.2.12,22.46,22.46,0,0,1-5.44-1.2,10.2,10.2,0,0,0-1.36-.55c-.9-.5-80.65-27.25-80.65-27.25l231-75.5,0,0C855.24,455.26,714.93,555.38,713.93,556Z" transform="translate(-18.39 -23.91)"/></g><g id="Name_Red" data-name="Name Red"><path class="cls-2" d="M280.8,71.55c-2.7,2.23-4.62,3.86-4.62,6.31,0,0,7.49,12.43,7.49,26,0,7.4-1.45,15.3-6,20.15-6.91,7.35,2.41,13.88,9.14,13.88,4.85,0,8.36-3.34,12.57-4.94-.42,1.09,4.42,4.78,10.36,4.78,9.42,0,12.31-6.69,12.31-8.67s-1.8-3.25-2.68-5c-2.56-5-6.82-3.66-6.82-26.71,0-3.8.1-6,2.14-6,4.7,0,3.82,2.34,3.82,3.53,0,13.15,6.92,43.14,17.94,43.14,3.2,0,4.7-3.34,7.85-3.34,3.94,0,2.59,2.52,8.35,2.52,7,0,14.05-2,14.05-9.07,0-2.88-3.34-2.23-9.73-8.7l-5.37-9c-.65-20.15-7.81-30.8-7.81-30.8,6.62-6.25,7.62-14,7.62-22.84,0-9.56,5-12.77,11.11-18.38,2.82-1,4.4-2.6,4.4-4.54,0-2.28-3.63-8.44-11.54-8.44a24.67,24.67,0,0,0-11.87,3.24c-2.75-2.1-5.29-3.13-7.62-3.13-12.5,0-15.56,29.32-18.36,44.21l-5-.26c0-.43,0-13.84,0-13.84h0c0-13.91,9.47-16.32,9.47-22.15,0-4.59-7.06-8.19-11.73-8.19-5.23,0-11.82,4.34-11.82,4.34s-5.29-4.18-11.35-4.18c-8,0-12.08,5.83-12.08,9.08,0,2.48,2.09,4.14,3.54,6C284.9,48.72,285.09,62.18,280.8,71.55Z" transform="translate(-18.39 -23.91)"/><polygon points="722.47 55.17 722.47 55.17 722.48 55.17 722.47 55.17"/><path class="cls-2" d="M718,161.81c-8,0-6.64,5.34-10.48,5.25-3.36-1.61.57-18.13-24-15-12.44,7.06-7.8-7.45-27.16,41.79-9.69,10,28.15,43,50,16.06,1.62-4.11,3.67-8.23,3.67-12.6,0-4.85-3.56-7.82,2.5-9.55,12.79-4.07,8.25-12.53,8.25-18.63C720.74,166.27,724.15,161.81,718,161.81Zm-22.36,33.06-.22,0a.93.93,0,0,1,.35-.05c-.47-1.63-1.57-3-2-4.68a2.5,2.5,0,0,0,2.54.44C695.71,193.61,700.38,192.64,695.63,194.87Zm-9.89,8.82c-2.73,0-7.51-.44-9.23-4.24a.81.81,0,0,1-.2-.15,4.06,4.06,0,0,0,1.53-3.35c-3.25-5.07-8-7.24,1.72-12.1a5.63,5.63,0,0,0,2.74,2.2c-6,2.84-1,15.91,8.65,16.15C688.81,202.78,688.67,203.68,685.74,203.68Z" transform="translate(-18.39 -23.91)"/><path class="cls-2" d="M780,121.07a1.8,1.8,0,0,0,1.69-2.1h0c3-45.57-.5-26.41-7.67-25.85L771.8,97,770,99.12C770.1,101.12,766.78,131.91,780,121.07ZM776.77,102c-.43,3.87-.92,7.75.8,11.48l-.31.19C774.93,116.28,774.42,106.46,776.77,102Z" transform="translate(-18.39 -23.91)"/><path d="M401.49,122.56h0l0,0Z" transform="translate(-18.39 -23.91)"/><path d="M651.94,88.27" transform="translate(-18.39 -23.91)"/><path d="M574.53,185.86c7.88,0,6.83-6.87,5.4-8.92.25-4.06-1.56-5.78-4.36-5.78-3.74,0-2.69,3.31-2.69,5.9C572.87,183.57,571.76,185.86,574.53,185.86Zm2.26-2.8c-3-1.94-.67-6-.55-6.84C579,177.7,576.75,182.22,576.79,183.06Z" transform="translate(-18.39 -23.91)"/><path d="M918.32,82.41c6.59-.67,11.29,2,11.29-10.46,0-4.26-1.3-5.46-1.3-7.66s-1-2.65-1-2.65c-.63-3.13-2.9-4-6.14-4-2.73,0-4.3,1.32-5,3.92C914.87,64.4,912.9,82.41,918.32,82.41Zm2.07-4.8c-.06-1-.79-9.35.31-12.1,2-.44,1.16,1.16,1.88,2.16,1.25,3.3-.9,6.69,0,10C921.89,77.64,922.36,77.65,920.39,77.6Z" transform="translate(-18.39 -23.91)"/><path class="cls-1" d="M493.93,176.3a4,4,0,0,1-.9.65,2.87,2.87,0,0,1,.73.75A12.75,12.75,0,0,1,493.93,176.3Z" transform="translate(-18.39 -23.91)"/><path class="cls-1" d="M617.68,211l.27.19-.27-.19Z" transform="translate(-18.39 -23.91)"/><path class="cls-1" d="M590.19,195.15h-.39l.34.24C590.16,195.32,590.17,195.24,590.19,195.15Z" transform="translate(-18.39 -23.91)"/><path d="M400.77,216.23c.14.15.28.28.42.4l-.42-.4Z" transform="translate(-18.39 -23.91)"/><path d="M400.77,216.23c1.8,1.8,3.51,1.7,6,1.11C407.13,215.85,405.36,213.94,400.77,216.23Z" transform="translate(-18.39 -23.91)"/><path class="cls-2" d="M460.12,207.12c-3.31,3.61-3-4.64-3.22-7.88,7-12.46-2.66-11.91.5-21.94,7.08-.33,14-6.52,8.6-10.93-1.94-4-9.35,1-9.35-5.52,0-2.83,3.69-11-3.4-11-3.41,0-7,3.34-7.1,7.33-1.56,1.56-4.09,8.54-11,8.92-.52-3.07-3.09-1.66-4.77-2.18-.34-1.56,1.79-1.44,1.86-2.72,9.15-1.84-5.55-15.18-7.68-15.18-1.72,0-9.24,8.06-9.51,9.07-2-.36-3.83-1.38-5.9-.72-2.4-.19-4.09,2.6-6.68,1.57-1.78-1.9-3.68-3.9-5.6-2.17-5.28,2.48-5.46,15.23-7,19.29-1,1-1.2,5.55-.91,5.91-1,0-2.08.31-2.69-.9.24-5-1.52-10.29,2-14.88,7.82-5.23-2.56-9-4-9.12-29.83-1.61-18.44,2.26-15.87,23-5.44,7.92-5.44,7.92-.22,17.06.22,1.39-1.24-.58-1.27,9.55-1.23,3.28-.36,7.35-2.76,10.11s4,6.46,6.33,6.46c2.56,0,6-3.08,6.93-3.08,1.42,0,3.91,5.07,9.76,1.91,2.26-.41,3.16-2.3,4.29-3.94-1.54-6-7.43-16.33-2.18-15.8-2.57,9.51,5.81,18.62,6.81,19,2.47,2.47,4.47.53,9.36.53,2.36,0,4.13,2.86,7.69.32.47-.07,12.86-1.23,14-1,4.63,3.5,6.27-2.21,9-2.15,4.5,2.13,26,5.09,28.07,1.22,10.46-2.11,10.55-30.34,3-24.4C458.5,199.79,463.9,199.3,460.12,207.12ZM434.94,172.6c.48,4.43.18,3.24,2.54,5.53,2.65,2.57,2,9.83-3.55,9.88.76-1.42,1.39-12.52-.48-14.47C433.9,173.25,435.43,171.8,434.94,172.6Zm-20.61,35.1c-.72,1.82-2.44.66-3.63,1.08a69.32,69.32,0,0,0-2.35-8.52c2.64-6.44-1.18-9.39-2.81-15.31,2.78-1,3-3,1.68-5.63h0c.12-.19,4.56-11.75,4.56-11.75.39.12,3.39,17.41,2,21.41,0,.12.12.22.17.33-4.13,1.7,1.71,11.82,2.71,12.7C414.62,203.28,415.68,206.09,414.34,207.7Zm21.5,3.67a6.26,6.26,0,0,0-2.55-4.44c2.64-2.88-.53-9.23,3-11.71,4.28,5,1.67,11.11,2.8,14.51A4.25,4.25,0,0,0,435.84,211.38Z" transform="translate(-18.39 -23.91)"/><path class="cls-1" d="M509.6,223.71" transform="translate(-18.39 -23.91)"/><path class="cls-1" d="M589.44,195.15" transform="translate(-18.39 -23.91)"/><path class="cls-1" d="M616.93,211l.27.19-.27-.19Z" transform="translate(-18.39 -23.91)"/><path class="cls-2" d="M510.08,185.86c-.14-18.42-.54-22.8-25.18-22.53-13.53,6.75-11.34,11-12.85,20.08-1.35,2-4.32,34.81,21.62,34.81a8.94,8.94,0,0,0,7.36-3C509,217.29,512.6,185.78,510.08,185.86Zm-13.69,14a3.07,3.07,0,0,0,.45.39c-1.14.67-1.38,3-2.8,3a3.25,3.25,0,0,1-2.77-3.31c0-5,4.39-6.19,2.64-10.66.37-.55.94-.67,1.45-1,1.82.22,8.9,5.6,10.55,2v-.1a.77.77,0,0,0,.5,0c.41,2.93,1.19,3.36,2,5C505.08,191.33,494.17,192.39,496.39,199.86Z" transform="translate(-18.39 -23.91)"/><path class="cls-1" d="M587.93,196.41h-.39l.34.24C587.9,196.58,587.91,196.49,587.93,196.41Z" transform="translate(-18.39 -23.91)"/><path class="cls-1" d="M586.06,175c-5.36-11.82-16.38-5.25-20.18-7.39a1.45,1.45,0,0,0,.08.5c-8.06,10-6.5,26.52-7.11,30.19a3.15,3.15,0,0,1-.41.05l0,0c3.31,4.17,4.15,9.59,7,14v.06a31.28,31.28,0,0,1,10.58,2.83l.26-.26c6.09-1.21,9-5.77,11.26-10.9,1.76-1.72,2-7.18-4-5.64-1.7,3.79.84,13.7-11,8.82-1.68-1.16-1.95-3-2.25-4.78-2.14-3.48.84-6.7.5-10.08,3.86-1.33,7.39-2.23,11-.2l7.45,0-1.56-10.74C587,179.88,587.68,176.91,586.06,175Z" transform="translate(-18.39 -23.91)"/><path class="cls-1" d="M615.42,212.23l.27.19-.27-.19Z" transform="translate(-18.39 -23.91)"/><path class="cls-1" d="M613.13,207.88" transform="translate(-18.39 -23.91)"/><path class="cls-1" d="M577,114.87c3.22-3,4-10.45.49-15.12A22,22,0,0,1,577,114.87Z" transform="translate(-18.39 -23.91)"/><path class="cls-1" d="M579.37,50.42c-1.46,3.31-1.33,6.51-1.17,9.71a2.54,2.54,0,0,1,1.67-1.86C579.27,55.88,581.17,53.32,579.37,50.42Z" transform="translate(-18.39 -23.91)"/><path class="cls-1" d="M686.06,58.73l.15-.15-.43-.18C685.89,58.51,686,58.62,686.06,58.73Z" transform="translate(-18.39 -23.91)"/><path class="cls-1" d="M740.77,79.05l.09,0,0,.31c.78-.39,1.79-.49,2.27-1.28l.75-4.85A25,25,0,0,1,740.77,79.05Z" transform="translate(-18.39 -23.91)"/><path class="cls-1" d="M746,59.62l0,.32C746,59.85,746.08,59.64,746,59.62Z" transform="translate(-18.39 -23.91)"/><path class="cls-1" d="M743.34,77.37c1.71-1.94,1-4.32,1.19-7.34,0,0-.71,3.38-1.44,8.09A1.81,1.81,0,0,0,743.34,77.37Z" transform="translate(-18.39 -23.91)"/><path class="cls-1" d="M874.79,77.12V77l-.14.06Z" transform="translate(-18.39 -23.91)"/><path class="cls-2" d="M745.39,74.31c1.26-2.16,5.06-17.78,1.13-20.83-7.06-18.3-32.48-13.68-37.17-6.41-23.82-10.72-33,2.82-22.83,9.47.52,1,5.21,7.24,5.21,15.8,0,12.35-7.16,12.49-6.42,18.59,1.09,9,8.39,11.75.58,29.92V131.7c10.86,8.07,17.37-2.94,21.94.78,9.11,7.42,27.05-3.34,17.2-10.58l-5.34-9.49c-.69-16.81,6.58-21.94,6.58-21.95,0-5.13-4.52-6-4.52-10.13,0-1.7,4.53-1.88,6.66,1,2.37,3.19,5.08,4.7,8.24,4.7,5.66,0,7.19-2.64,8.19-3.33C745.92,75.6,742.27,77.55,745.39,74.31Z" transform="translate(-18.39 -23.91)"/><path class="cls-2" d="M808.73,80.17C807.39,71,805.2,39.62,779,39.62c-15.84,0-25.16,11.46-27,13.35a1.87,1.87,0,0,0-.38.57c-.85,2-5.21,12.44-5,18.32a1.44,1.44,0,0,1,0,.21c-2.13,18.37,9,10.31,5.18,14.4-.93,1-9.8,17.54-9.8,19.35,0,2.22,3.39,9.24,4.45,10.9.64,1,10.56,27.92,30,19.87,7-2.31,10.27-4.56,11.67-6a1.82,1.82,0,0,1,2.41-.11c8,6.1,20.34,3.22,22.65-.94s.51-4.91-5-16.39a1.88,1.88,0,0,1-.18-.73c-1.07-30.68,3.41-9.11,2.26-27.38C808.09,87.17,808.88,81.17,808.73,80.17Zm-29.07,37.17c-.08.6-6.23,1-6.5-.67C770.84,101.85,778,97.33,778,97.33Z" transform="translate(-18.39 -23.91)"/><path class="cls-1" d="M432.29,75.25l-.33.41.09,1a5.34,5.34,0,0,1,.2-1.39Z" transform="translate(-18.39 -23.91)"/><path class="cls-1" d="M396.55,99.7c1.6,2.63-.18,8.67,1.66,13.63,2.79-4.61-1-9.76,1.31-12.68C398.43,100.7,397.55,100,396.55,99.7Z" transform="translate(-18.39 -23.91)"/><path class="cls-1" d="M423.5,62.27C420.21,23.38,392.91,24,376.38,40v0c0,1.37-6.11,39.72-9.49,39.72,0,2.34,1.77,3.9,3.3,6.12,3.19,4.65,2.82,20.31,3.9,25.47,5.41,25.93,32.84,22.26,43.86,13.75,5.2-9.87,3.84-15.86,6-30.53.16-1.2,1.31-2.41,1.31-3.58,0-5.35-8.68,1.59-12.45,1.59s-5.13-3.14-8-3.14c-1.21,0-7.27,1.36-3.84,4.13,1.14,2.38.89,1.59,1.16,3.59,5.17,8.21,4.26,12.79,1.78,22.21-.9,1.5-2.81,1.05-4,2.07-13.49,4.23-10.24-35.61-5.41-38.56a1.33,1.33,0,0,1,0-.23,9.84,9.84,0,0,0,1.63-3.79c-9-6.77-11-38.42,2.92-38.42C403,40.46,407,45,407,51c0,5.67-3.59,12.2-7,20.62l.12.14a7,7,0,0,1,.71-1c12.81-2.4,13.23-3.57,17.18-.35a6,6,0,0,0,4.62,1.85c1.89,0,3.06,0,4.27-2.31C424.49,68.91,423.72,64.82,423.5,62.27Z" transform="translate(-18.39 -23.91)"/><path class="cls-2" d="M442.17,34.64c-4.88,0-10.18,5-12,13.41,2.78,31,1.87,30.28,5.58,31.78a9.69,9.69,0,0,0,5.16,1.59c3.74,0,7-2.55,7.75-7,1.16-6.55,2.81-15.55,2.81-22.89C451.51,39.7,447.06,34.64,442.17,34.64Z" transform="translate(-18.39 -23.91)"/><path class="cls-1" d="M577,114.87c3.22-3,4-10.45.49-15.12A22,22,0,0,1,577,114.87Z" transform="translate(-18.39 -23.91)"/><path class="cls-1" d="M579.37,50.42c-1.46,3.31-1.33,6.51-1.17,9.71a2.54,2.54,0,0,1,1.67-1.86C579.27,55.88,581.17,53.32,579.37,50.42Z" transform="translate(-18.39 -23.91)"/><path class="cls-1" d="M574.86,87.22c-1.29-3.25,3.57-5,2.14-8.25,0-.1,0-.2,0-.3a3.18,3.18,0,0,1-1.23-2.46c-7.18-8.44-6.86-38.51,7-33.06.71,1.56,3.28,1.63,3.12,3.89,4.63,13.88-6.88,16.46-4.68,25.88l1.36.22a5.45,5.45,0,0,1,.63-.69c2.86-1.12,6.19-.18,8.89-2,4.47-1.82,7.21.48,6.82,2.45,1.94-1.7,6.22,2.15,8-.8,0,0-2.54-27.29-6.44-33.71a10.15,10.15,0,0,0-1.1-.43c-11.1-7.61-42.9-16.65-47.63,25.36-.21,6.53.37,8.52-1.1,10.74,0,.62-3,5-3.11,5.09.24,1.89-1.9,2.71.39,4.08,9.52,5.68-4.63,66.66,41.8,47.79v0c4.81-10.35,6.69.14,14.14.14,1.45,0,2.9-.19,4.34-.08a4.22,4.22,0,0,1,1.36-.92,8.43,8.43,0,0,0,1.93-2.28c-.26-1-9.43-7.51-7.57-17.84,1.23-2.57,1.1-1.67,1.12-3.86a3.1,3.1,0,0,0-.86-1.31c-2-5.75,5.46-16.18-.66-13-7.81,4.08-15,.38-22.5-.47a.91.91,0,0,1-.09-.13c-.37,1.57.42,2.71,1.27,4,14,20.77-10.59,44.17-10.59,11" transform="translate(-18.39 -23.91)"/><path class="cls-2" d="M613.54,96C617.76,91.52,610,85,605.19,85c-3.13,0-9.41,4.15-18.36.39-1.16-.49-2.59-.31-4.15-.47,1.39-1.55,1.23-3.22,1.07-4.88,3.56-1.78,8-1.24,11.11-4.13,3.75,2,7.44,4.3,12,3,5.39-.07,9.74-4.36,7.58-8-1.54-2.56-2.25-5.34-3.62-7.88-1.62-9.15-.08-37.65-29.75-37.65C555.77,25.44,547,39.61,547,64.73c0,15.1-6.26,9.82-6.26,16.81,0,2.32,5.31,10.67,6.11,11.67C547.32,108,545,139,576,139c5.63,0,13.51-1,17-5.86,16,3.94,16.14,6.32,25.55-6.59l-1.17-2.08C614.9,126.15,603,107.05,613.54,96ZM579.86,58.28a2.54,2.54,0,0,0-1.67,1.86c-.15-3.15-.3-6.39,1.17-9.71C581.17,53.32,579.27,55.88,579.86,58.28Zm-2.39,41.48c3.49,4.64,2.75,12.1-.49,15.12A22,22,0,0,0,577.47,99.75Z" transform="translate(-18.39 -23.91)"/><line class="cls-1" x1="602.61" y1="102.39" x2="602.8" y2="102.57"/><path class="cls-1" d="M817.27,200.63c0,1.38,1.85,7,3.41,7,2.05,0,2.14-4.62,2.92-6.14a7.65,7.65,0,0,0-1-4.45C819.94,192.9,818.68,199.85,817.27,200.63Z" transform="translate(-18.39 -23.91)"/><path class="cls-2" d="M757.69,169.06" transform="translate(-18.39 -23.91)"/><path class="cls-1" d="M757.69,169.06c-.16,1.94-1,9.38,2.1,9.2C770.06,177.69,759.1,152.14,757.69,169.06Z" transform="translate(-18.39 -23.91)"/><path class="cls-1" d="M817.27,200.63c0,1.38,1.85,7,3.41,7,2.05,0,2.14-4.62,2.92-6.14a7.65,7.65,0,0,0-1-4.45C819.94,192.9,818.68,199.85,817.27,200.63Z" transform="translate(-18.39 -23.91)"/><path class="cls-1" d="M757.69,169.06c-.16,1.94-1,9.38,2.1,9.2C770.06,177.69,759.1,152.14,757.69,169.06Z" transform="translate(-18.39 -23.91)"/><path class="cls-1" d="M758.88,192.19c-2.43.13-2.64,2.75-2.75,4.62-.24,4.25-1.09,8,3.19,8,5.06,0,4.07-6,4.07-7C763.39,194.91,762,192,758.88,192.19Z" transform="translate(-18.39 -23.91)"/><path class="cls-1" d="M817.27,200.63c0,1.38,1.85,7,3.41,7,2.05,0,2.14-4.62,2.92-6.14a7.65,7.65,0,0,0-1-4.45C819.94,192.9,818.68,199.85,817.27,200.63Z" transform="translate(-18.39 -23.91)"/><path class="cls-2" d="M856.23,180.37c2.84-25-17.66-17.08-20.81-13.86-4.14.38-5.07-3.45-9.34-3.45-2.75,0-6.87,2.46-6.87,5.09,0,3.52,4.5,4.15,4.5,10.9,0,14.8-6,8.73-6.28,6.28-.56-5.07.87-8.11-1.93-11-.52-1.76,1-4.36-2.06-5.08-4.28-6.77-16.38-8.67-23-3.62-8.75,2.17-6.92,13-6.83,17.74-.53,1.19-2.42,2.21-.9,3.7,2.69,2.62-.62,7.09-1.64,7.62a3.21,3.21,0,0,1-1.71-.86,4.39,4.39,0,0,0-.93-.21c-.22-2.11.68-4.44-1.35-6.22-2.19-1.92,1.78-2,1.16-10,1.88-2.35,4.42-4.44,3.15-8-5.8-1.94-1.53-8.31-9.21-10.74-3.22-4.53-26.12-5.35-28.41-5.35-2.48,0-9.48,3.73-6.35,7,7.61,8,3,18.28,3,21.07-.93,2.26-5.51,4-1,7,3.41,7.69,3.59,15.1-.9,22.25-4.82,3.53,4.28,7.81,5.71,7.81,2.5,0,3.63-2.8,6.62-2.8,2.41,0,10.7,4.81,15.86,1.79,2.82-.58,3.33-.08,4.84-2.07,5.28-.06,8.19-8.21,8.85-9.21,0,1.92,1.21,2.33,1.88,3.33,2.57,2.17,0,3.23,2.18,3.91,2.44,3.48,7.12,5.24,11.67,5.24,9.43,0,6.52-4.93,13.22-2,2.26,1.31,3.86,2.62,6.53.83,6-4.18,6.72.92,10.22.92,2.83,0,3.76-2.46,6.3-2.46s3.53,2.35,6.65,2.35c3.39,0,6.51-3.78,6.51-5.65s-2.55-3-3.83-4.42l-.41-5.88c4.72-19.24,2.29-8.39.8-17.92l2.89.08c0,1,3.16,6,8.46,4.59.79-.93,2.66-1.24,2.66-2.62,0-1.13-.95-1.61-.95-2.59C855.11,182.69,856.42,181.62,856.23,180.37Zm-96.92,24.44c-4.28,0-3.43-3.74-3.19-8,.11-1.88.32-4.5,2.75-4.62,3.09-.16,4.51,2.72,4.51,5.62C763.39,198.81,764.37,204.81,759.31,204.81Zm.48-26.54c-3.13.18-2.27-7.26-2.1-9.2C759.1,152.14,770.06,177.69,759.79,178.26Zm38.57,28.47c-1,0-2.49-2.18-2.49-3.17,0-.73-.76-5.3,3.24-7.55a8.92,8.92,0,0,1,2.07,5.36C801.19,202.38,799.56,206.73,798.36,206.73Zm25.24-5.27c-.78,1.52-.87,6.14-2.92,6.14-1.56,0-3.44-5.59-3.41-7,1.41-.78,2.67-7.73,5.38-3.62A7.65,7.65,0,0,1,823.6,201.46Z" transform="translate(-18.39 -23.91)"/><path class="cls-1" d="M396.55,99.7c1.61,2.65-.19,8.66,1.66,13.63,2.79-4.61-1-9.76,1.31-12.68C398.43,100.7,397.55,100,396.55,99.7Z" transform="translate(-18.39 -23.91)"/><path class="cls-2" d="M417,84.52c-7,3.57-1.45-.27-16.44,0,1-2.17,2-3.95,1.49-6,5.54-1.7,10.91-5.73,16.9-1.21,6.17.15,3.74.15,11,0,1.61-.47,8-53.37-30.69-53.37-41,0-29.13,39.75-34.62,49.42-12,8.85,2.34,5,2.35,36.18,0,13.26,12.38,28.49,30.51,28.49,40.23,0,27.75-36,33.84-44.11A6.92,6.92,0,0,0,433,89.87C433,87.19,427.33,79.24,417,84.52Zm-18.78,28.82c-1.85-5-.06-11-1.66-13.63,1,.32,1.88,1,3,.95C397.24,103.57,401,108.72,398.21,113.33Zm-1.66-67.67c.16-1,7.25,1.32,6.42,7.67L398,64.17C387.89,69.56,390.57,49.46,396.55,45.67Z" transform="translate(-18.39 -23.91)"/><path class="cls-2" d="M406,52.35c.45-3.47-3.24-5.4-3.18-5.79" transform="translate(-18.39 -23.91)"/><path class="cls-2" d="M402.82,46.56l.15-.08C402.87,46.49,402.83,46.52,402.82,46.56Z" transform="translate(-18.39 -23.91)"/><path class="cls-1" d="M483.72,110.49c-.31.78-3,3.14-3.73,3.63a10,10,0,0,1,2.83,1.71,10.17,10.17,0,0,0,2.91-4A3.42,3.42,0,0,0,483.72,110.49Z" transform="translate(-18.39 -23.91)"/><path class="cls-2" d="M512.38,96c-.59-1.46-5.13-7.82-6.57-8.62a2.11,2.11,0,0,0,1.7-.79c3-1.45,5.64-3,5.64-5.8a5.38,5.38,0,0,0-.32-1.75c-.78-2.26-.08-9-.08-11.17,0-39.85-60.46-37.19-60.46,3.86,0,7.6,5.83,17.59,5.83,17.88,0,2-7.58,2.94-7.58,6.52,0,2.39,2.22,7.13,2.22,12.74,0,2.72-.51,4-.51,5.92,0,7.9,13.65,22.85,29.77,22.85a38.11,38.11,0,0,0,6.14-.88L498.75,134C503.21,134,522.17,114.44,512.38,96Zm-29.56,19.77a10,10,0,0,0-2.83-1.71c.69-.48,3.42-2.84,3.73-3.63a3.42,3.42,0,0,1,2,1.38A10.17,10.17,0,0,1,482.82,115.82ZM484,68.13l.9-5.33a3.42,3.42,0,0,1,2,1.38A10.17,10.17,0,0,1,484,68.13Z" transform="translate(-18.39 -23.91)"/><path d="M484,68.13a10.17,10.17,0,0,0,2.91-4" transform="translate(-18.39 -23.91)"/><path class="cls-1" d="M645.5,120.33c1,1.44,6.44-24.5,3.75-27.17C649.25,93.17,637.67,108.92,645.5,120.33Z" transform="translate(-18.39 -23.91)"/><path class="cls-1" d="M645.5,120.33c1,1.44,6.44-24.5,3.75-27.17C649.25,93.17,637.67,108.92,645.5,120.33Z" transform="translate(-18.39 -23.91)"/><path class="cls-2" d="M681.7,122.1c.43-16.88-1.53-26,1.33-27.22s2.78-7.74-.59-10C674.19,79.41,685.08,41,648.82,41c-16.71,0-28.75,8.58-29.39,21.64-.17,3.57,1.3,5,2.32,10.1-.58,6.36-3.22,3.43-3.22,9.58.61,3.08,4.93,2.44,4,5.37-4.63,5.06-5.22,12.33-9.66,17.55-1.42,1.67,0,4.42,1,5.48,4.15,4.37,8.38,37.21,42.74,21.86,2-1.61,2.74-2.22,3.26-2.22,4,0,13.42,8.76,22.24,2.16C684.5,130.74,688.11,120,681.7,122.1Zm-36.2-1.77c-7.83-11.42,3.75-27.17,3.75-27.17C651.94,95.83,646.49,121.77,645.5,120.33Z" transform="translate(-18.39 -23.91)"/><path class="cls-1" d="M922.77,114.1c2.15-.59,2.84,0,4.8,0,5.11,0,3.11-6.06,6.09-7.66-3.74-3.84,1.18-8.16,2-9.51C916.56,100.29,921.28,88.93,922.77,114.1Z" transform="translate(-18.39 -23.91)"/><path class="cls-2" d="M954.05,90.89a11.14,11.14,0,0,0-1.23-4.56c-2.59-6.68-.78-13.83-2.19-20.63-.18-3.26-1.89-6-2.9-9,0-.82-.14-1.6-1-2-6.24-9.53-15.23-13.25-26.52-13.25-30.49,0-27.58,38.13-29.66,41.21-9.41-.29.65,55.27,31.51,55.27a30.11,30.11,0,0,0,30.24-30.72,50.62,50.62,0,0,0-.43-5.91c0-2.13-2-2.89-3.06-4.32C952.38,95.35,954.05,93.51,954.05,90.89ZM917.6,74.44c0-1,.07-2.06.07-3.09,0-1.79-.27-2.4-.27-3.79,0-3.05,1.49-5.87,4.3-5.87a6,6,0,0,1,3.38,1.39,26.34,26.34,0,0,1,1.51,8.65c0,4-.78,8.73-4.81,8.73C918.63,80.46,917.6,77.6,917.6,74.44Zm16.05,32c-3,1.6-1,7.66-6.09,7.66-2,0-2.64-.62-4.8,0-1.49-25.17-6.2-13.81,12.86-17.14C934.84,98.3,929.92,102.62,933.65,106.46Z" transform="translate(-18.39 -23.91)"/><path class="cls-2" d="M534.46,182.47a9.36,9.36,0,0,0-.77,1.17,1.56,1.56,0,0,0-.07.42Z" transform="translate(-18.39 -23.91)"/><path class="cls-1" d="M534.23,180.53a13.27,13.27,0,0,0-.42-3.35.21.21,0,0,1,0-.05,3.19,3.19,0,0,0-2.29-2.6c-1,0-3.25,1.42-3.25,5.77,0,6.3,2.36,7.49,2.36,11.17,0,.55-2,5.61-2,8.74,0,.3,0,.62,0,.75,0,.67-.13,1.32-.13,2,0,1.15.34,6.19,1.94,6.19l.13,0c2.77-1.23,3.78-5.15,3.78-7.42,0,0-2.39-6.63-2.39-10.76a15.1,15.1,0,0,1,1.72-7.29,8.54,8.54,0,0,0,.44-1.26A17.1,17.1,0,0,0,534.23,180.53Z" transform="translate(-18.39 -23.91)"/><path class="cls-1" d="M534.46,182.47a9.36,9.36,0,0,0-.77,1.17,1.56,1.56,0,0,0-.07.42Z" transform="translate(-18.39 -23.91)"/><path class="cls-1" d="M575.25,184.25a8.38,8.38,0,0,0,2.81-1.12.11.11,0,0,1,.11-.06l.15,0a.07.07,0,0,0,.06,0,4.73,4.73,0,0,0,1.09-3.14c0-2.13-1.47-5.43-3.4-5.43-1.67,0-2.39,3.07-2.39,4.87C573.68,180.37,573.91,184.25,575.25,184.25Z" transform="translate(-18.39 -23.91)"/><path class="cls-1" d="M534.23,180.53a13.27,13.27,0,0,0-.42-3.35.21.21,0,0,1,0-.05,3.19,3.19,0,0,0-2.29-2.6c-1,0-3.25,1.42-3.25,5.77,0,6.3,2.36,7.49,2.36,11.17,0,.55-2,5.61-2,8.74,0,.3,0,.62,0,.75,0,.67-.13,1.32-.13,2,0,1.15.34,6.19,1.94,6.19l.13,0c2.77-1.23,3.78-5.15,3.78-7.42,0,0-2.39-6.63-2.39-10.76a15.1,15.1,0,0,1,1.72-7.29,8.54,8.54,0,0,0,.44-1.26A17.1,17.1,0,0,0,534.23,180.53Z" transform="translate(-18.39 -23.91)"/><path class="cls-1" d="M534.46,182.47a9.36,9.36,0,0,0-.77,1.17,1.56,1.56,0,0,0-.07.42Z" transform="translate(-18.39 -23.91)"/><path class="cls-2" d="M590.9,196.14c3-1.74,4.2-9.32.75-7.82a61.85,61.85,0,0,1,.18-9.72c-6.6-22.8-27.21-16.12-31.37-10.66-7.84,10.3-1.92,25.74-10.2,18.39-1.49-3.16.57-13-3.53-17-.79-1.92-1.82-3.59-4.08-4-5.76-4.85-12.58.57-12.58-3.94,0-5.31,6.19-11.42-6.44-10.86a2.68,2.68,0,0,0-3,.9c-11.5-4.08-14.75,1-12,5,.62,4.19,2.16,2.53,2.16,10.52a9.61,9.61,0,0,0,.73,4c-.31,1-3.91,43.59-2.91,44.63,1.93,3.76,5,2.51,6,2.51,2.7-.86,19.46,1.71,24-1.16s3.94,1.61,8.61,1.61c1.05,0,11.39-3.32,5.39-7.91-4.7-5.22-4.16-19.91,1.91-16.11,2.44,2.66.37,16,10.12,20.85,4.91,4.6,25.39,8.93,27.92-16.12a10,10,0,0,0-1.5-2.92ZM532,190.92c0,4.13,2.39,10.76,2.39,10.76,0,2.27-1,6.19-3.78,7.42l-.13,0c-1.6,0-1.94-5-1.94-6.19,0-.66.13-1.31.13-2,0-.13,0-.45,0-.75,0-3.13,2-8.19,2-8.74,0-3.68-2.36-4.87-2.36-11.17,0-4.35,2.25-5.77,3.25-5.77a3.19,3.19,0,0,1,2.29,2.6.21.21,0,0,0,0,.05,13.27,13.27,0,0,1,.42,3.35,17.1,17.1,0,0,1-.1,1.84,8.54,8.54,0,0,1-.44,1.26,9.36,9.36,0,0,1,.77-1.17l-.83,1.59a1.56,1.56,0,0,1,.07-.42A15.1,15.1,0,0,0,532,190.92Zm44.1-16.43c1.93,0,3.4,3.3,3.4,5.43a4.73,4.73,0,0,1-1.09,3.14.07.07,0,0,1-.06,0l-.15,0a.11.11,0,0,0-.11.06,8.38,8.38,0,0,1-2.81,1.12c-1.34,0-1.57-3.88-1.57-4.88C573.68,177.56,574.39,174.49,576.07,174.49Zm1.28,30c-2.9,0-4.76-2.93-4.76-5.51s2-5,4.21-5a3.36,3.36,0,0,1,1.14.21c2.48.89,3.45,3.78,3.45,6.15C581.38,203.34,580,204.52,577.35,204.52Z" transform="translate(-18.39 -23.91)"/><path class="cls-1" d="M617.07,187.06c4.68-.06,1.23-9.87,1.36-10.87C614.75,177.7,613.25,187.11,617.07,187.06Z" transform="translate(-18.39 -23.91)"/><path class="cls-2" d="M640.34,212.21c-7.68-6.74-.3-21-2-22.39-4.63-2.32,3.58-15.89-10.37-23.9a12.82,12.82,0,0,0-7.82-2.3c-10.92,0-7.84,7.13-15.27,1.43-.95-1.39-8.57-2.42-12.22,4,.31,2,.36,1.93,1.79,3,2.9,4.58,2.77,8.3,2.68,13.28-2.81,2.21-2.79,13.63,0,13.62-.12.18-2.85,16.38-2.87,16.59,7.41,6.5,8.91,1,12.68,1,3.2,0,5.84,4.8,10.19.58,9.52,3.69,12.21-3.45,16.83,1.71C635.52,220.63,642.77,214.35,640.34,212.21Zm-21.91-36c-.13,1,3.32,10.81-1.36,10.87C613.25,187.11,614.75,177.7,618.43,176.19Zm1.63,26.31c.05.66.1,1.32.1,2,0,3.57-1.85,5.58-2.72,5.58s-1-1.06-1.75-2.06a4.12,4.12,0,0,1-.31-.75,13.37,13.37,0,0,1-1.3-5.5c0-3.61,2.1-5,3.2-5,1.6,0,3,2.61,3,4.56a6.22,6.22,0,0,1-.21,1.13S620.06,202.48,620.06,202.5Z" transform="translate(-18.39 -23.91)"/><path class="cls-1" d="M855.72,103.09c0-6-4.32-10.17-4.32-13.56,0-2.72,1.31-4.06,2.18-6.11.15-.34.5-.42.75-.67l.09,0c.74,0,1.61-7.61,1.61-9,0-4.95-2.35-10.77-3.35-10.77h-.18c-1.32,0-2.36-.71-3.64-.71-3.92,0-6.41,2.81-6.41,7.16,0,7.56,5.06,20.49,5.06,20.5a26,26,0,0,0-4.3,14c0,1.08.59,7.16,5.88,7.16C853.13,111.13,855.72,109.61,855.72,103.09Z" transform="translate(-18.39 -23.91)"/><path class="cls-2" d="M890.77,50c-2.13-5-6.33-6.47-11.68-6.44-4.34-.34-8.13.53-11,3.78a4.66,4.66,0,0,1-1,.1,9.38,9.38,0,0,1-5.19-2.33c-.41-.59-8.22-3.73-14-3.73-35.84,0-26.73,37.29-33,43.32-1.48,1.43-.49,10,.5,11,5.55,5.37-1.06,14.89,7.49,24.16,2.72,3-2.19,4.23-2.19,7.84,0,0,4.74,7.32,6.31,12.67,5.95,20.23,33.82,23.77,45.2,10,15-18.14,7-46.56,13.7-53.93.77-.85,1.19-11.12-.72-12.44-2.78-1.92-2.08-4.65-2.34-17.8,0-4.64,3.79-7.3,5.81-10.88.85-1.51,2.42-.75,2.42-2.72A16.54,16.54,0,0,0,890.77,50ZM843.21,104a26,26,0,0,1,4.3-14s-5.06-12.95-5.06-20.5c0-4.36,2.49-7.16,6.41-7.16,1.27,0,2.31.71,3.64.71h.18c1,0,3.35,5.82,3.35,10.77,0,1.39-.87,9-1.61,9l-.09,0c-.25.25-.6.32-.75.67-.87,2-2.18,3.38-2.18,6.11,0,3.39,4.32,7.54,4.32,13.56,0,6.52-2.59,8-6.63,8C843.8,111.13,843.21,105,843.21,104Zm11.59,38.35c-2.73,0-6.15-.74-6.15-9.88a.49.49,0,0,1,.27-.43,4.35,4.35,0,0,1-1.63-2.81c0-2,4.62-3.12,7-3.12,4.38,0,7.35,1.52,7.35,5.91C861.61,137.07,859.91,142.31,854.79,142.31Z" transform="translate(-18.39 -23.91)"/></g><g id="Name_Line" data-name="Name Line"><path d="M280.8,71.51c-2.7,2.23-4.62,3.86-4.62,6.31,0,0,7.49,12.43,7.49,26,0,7.4-1.45,15.3-6,20.15-6.91,7.35,2.41,13.88,9.14,13.88,4.85,0,8.36-3.34,12.57-4.94-.42,1.09,4.42,4.78,10.36,4.78,9.42,0,12.31-6.69,12.31-8.67s-1.8-3.25-2.68-5c-2.56-5-6.82-3.66-6.82-26.71,0-3.8.1-6,2.14-6,4.7,0,3.82,2.34,3.82,3.53,0,13.15,6.92,43.14,17.94,43.14,3.2,0,4.7-3.34,7.85-3.34,3.94,0,2.59,2.52,8.35,2.52,7,0,14.05-2,14.05-9.07,0-2.85-3.28-2.24-9.54-8.51l-5.72-12.38c-1.25-18.07-7.65-27.59-7.65-27.59,6.62-6.25,7.62-14,7.62-22.84,0-9.56,5-12.77,11.11-18.38,2.82-1,4.4-2.6,4.4-4.54,0-2.28-3.63-8.44-11.54-8.44a24.67,24.67,0,0,0-11.87,3.24c-2.75-2.1-5.29-3.13-7.62-3.13-11.25,0-14.85,23.73-17.5,39.33a5.56,5.56,0,0,1-5.78,4.62h0c0-.43,0-13.84,0-13.84h0c0-13.91,9.47-16.32,9.47-22.15,0-4.59-7.06-8.19-11.73-8.19-5.23,0-11.82,4.34-11.82,4.34s-5.29-4.18-11.35-4.18c-8,0-12.08,5.83-12.08,9.08,0,2.48,2.09,4.14,3.54,6C284.9,48.67,285.09,62.13,280.8,71.51Zm1.92-37c0-2.09,2.65-2.61,4.72-2.61,5.92,0,8.19,5.88,11.18,5.88,2,0,6.43-6.63,11.74-6.63,2.16,0,4,1.85,4,3.24-8.38,8.32-14,42.83.13,42.83,17.84,0,8.65-44.63,21.1-44.63,3.31,0,4.95,4.06,7.14,4.06,3,0,5.14-5.51,10.89-5.51,1.9,0,6.29,1.62,7.56,1.62,0,0-15.07,7.73-15.93,21.89-.47,7.82-1,15.53-6.28,21.94-3.71,3.37-6.07,1.27-6.07,4.47,0,2.6,5.11,1.5,7.17,6.3,3.75,8.72,9.1,30.83,10.44,32.6.61.8,7.5,8.24,7.5,9.23,0,6.74-13.24-3-14.24-3a9.37,9.37,0,0,1-7.29,3.88c-3,0-11.2-10.19-11.68-38.66-.1-5.67-4.26-7.52-8.75-7.52-2.11,0-6,.24-7.89,1.15-1.64,2.41-2.1,8.6-2.1,14.41,0,20.12,7.67,28.91,7.67,28.91,0,2.24-2,2.67-3.71,2.67-11.13,0-4.32-2.81-10.7-6.1-1,0-16.57,11.35-16.57,4,0-4.14,6.81-14.39,6.81-29.6,0-14.42-7.72-21.39-7.72-21.39S289,69.48,289,60.58C289,42.66,282.71,34.55,282.71,34.55Z" transform="translate(-18.39 -23.91)"/><polygon points="722.47 55.12 722.47 55.12 722.48 55.13 722.47 55.12"/><path d="M718,161.76c-8,0-6.64,5.34-10.48,5.25-3.36-1.61.57-18.13-24-15-12.44,7.06-7.8-7.45-27.16,41.79-9.69,10,28.15,43,50,16.06,1.62-4.11,3.67-8.23,3.67-12.6,0-4.85-3.56-7.82,2.5-9.55,12.79-4.07,8.25-12.53,8.25-18.63C720.74,166.22,724.15,161.76,718,161.76Zm-22.36,33.06-.22,0a.93.93,0,0,1,.35-.05c-.47-1.63-1.57-3-2-4.68a2.5,2.5,0,0,0,2.54.44C695.71,193.56,700.38,192.59,695.63,194.82Zm-9.89,8.82c-2.73,0-7.51-.44-9.23-4.24a.81.81,0,0,1-.2-.15,4.06,4.06,0,0,0,1.53-3.35c-3.25-5.07-8-7.24,1.72-12.1a5.63,5.63,0,0,0,2.74,2.2c-6,2.84-1,15.91,8.65,16.15C688.81,202.74,688.67,203.64,685.74,203.64Zm26.53-19.14-.1.12c-10.45-10.8-6.12,16.59-7.43,20.51-1,.26-9.3,11.58-11.77,9.81-6.06,0-34.5,1.57-34.1-20.3,4.79-1.57,4-5.76,4.13-9.49a2.45,2.45,0,0,0-.15-.25c6.33-6.18,9.27-8.42,9.33-11.29-6.49-22,29.73-22,29.73-11.87,0,2.45-1.63,5.81-2.26,11.17h-.08l0,.06a11,11,0,0,1-7,2.08h0c-2.24-.37-4.57-.45-6.37-2.13-.79-2-8.58-1.2-3.53-5.88h0c3.7.75,3.84-3.12,4.88-4.15,4.51,0,0,3.65,4,3.88,3.09.77,4.19-.18,4.19-2.73,0-8.38-19-5.6-19,5.26,0,8.27,5.35,4.56,7.71,5.67l.2-.18h0l-.2.18c1.07,1.76,1.41,3.33.06,4.9l-5,1.1a14.2,14.2,0,0,0-3.78-1c-1.58,0-8.4,8.46-3.11,12.88l1,3.11c-6.32,18.54,38.48,12.72,24.72-7-3.6-4.89-6.83-.77-7.87-.07-2.74,4,.51,5.91,2.89,8.11-.62,1.56-4.93,1.82-8-2.08-1-3.25-3.74-7.72,3.19-12,3.45,0,6.63-2,10.08-2,1,0,9.26,2.09,9.26-4,0-1.64-1.7-2.85-3.21-3.85,1.3-.94,2.71-1.69,4-2.59,4.42,3.22,4-4.27,7.59-4.15C717.3,175.34,718.26,180.64,712.27,184.5Z" transform="translate(-18.39 -23.91)"/><path d="M780,121a1.8,1.8,0,0,0,1.69-2.1h0c3-45.57-.5-26.41-7.67-25.85L771.8,97,770,99.07C770.1,101.07,766.78,131.86,780,121Zm-3.2-19.12c-.43,3.87-.92,7.75.8,11.48l-.31.19C774.93,116.24,774.42,106.41,776.77,101.91Z" transform="translate(-18.39 -23.91)"/><path d="M401.49,122.52h0l0,0Z" transform="translate(-18.39 -23.91)"/><path d="M841.48,92.35c-4.25,3.9-2.88,10.37-1.14,15.91,2.34,2.6,1.52,4,3.66,4,1.93,0,2.31,2.33,5.22,2.33,2.68,0,4-2.45,4.22-2.15,3.47-.56,4.75-2.9,5-6.11,0,0-.2-.1-.18-.12l.18.12c2-4.09.24-9.87-1.37-14-6.94-5.24,2.08-2.74,2.08-15.23,0-1-.57-13.16-2.84-14.83h0l0,0c-.06-1-6.2-7.6-12-2.06h0c-7.58,3.8-6,26,.72,29.83C843.11,90.19,843.21,92.62,841.48,92.35Zm10.58-27.06a7,7,0,0,0,1.5,6.24c-.67,5.3-2.3,9.18-2.39,13.36-5.57.8-5.35-9.33-6.39-17.23C845.12,66.65,845.18,63.19,852.06,65.28Zm-3.67,27.27h0v0l2.72.77c-.7,2.39.82,5.51,2.1,7.25,1.07.33.23,5.71-.08,6.65h.06a3.91,3.91,0,0,0-1.79,1.34C839.31,103.95,850.39,95.12,848.39,92.55Z" transform="translate(-18.39 -23.91)"/><path d="M574.53,185.81c3.41,0,6.06-1.35,6.37-4.69a6.91,6.91,0,0,0-1-4.22c.12-1.89-.17-4-1.72-5-1.29-.9-4-1.12-4.95.15-.68.9-.57,12.83-.6,11.67C572.69,185.19,573.08,185.81,574.53,185.81Zm1.85-3.06c-1.3-2.41-.28-5.57-.14-6.57.84.82,1.79,1.58,1.64,4.95C577.83,182.15,576.36,182.45,576.38,182.75Z" transform="translate(-18.39 -23.91)"/><path d="M918.32,82.36c6.59-.67,11.29,2,11.29-10.46,0-4.26-1.3-5.46-1.3-7.66s-1-2.65-1-2.65c-.63-3.13-2.9-4-6.14-4-2.73,0-4.3,1.32-5,3.92C914.87,64.36,912.9,82.36,918.32,82.36Zm2.07-4.8c-.06-1-.79-9.35.31-12.1,2-.44,1.16,1.16,1.88,2.16,1.25,3.3-.9,6.69,0,10C921.89,77.6,922.36,77.61,920.39,77.55Z" transform="translate(-18.39 -23.91)"/><path d="M756.33,180.85c10,2.78,8.49-8.84,8.35-15.78-3.38-5.38-9.73-2.74-9.73,1.87C755,179.77,754.4,180.31,756.33,180.85Zm6.38-12.56a1.69,1.69,0,0,0,.18-.1v.05c-3,3,1.19,6.35-2.53,7.71-2.7-3.23-.36-6.93-.94-10.38C760.39,166.62,761.19,167.87,762.71,168.29Z" transform="translate(-18.39 -23.91)"/><path d="M762,191.44c-1.69-1.8-4.06-2.65-6.25-1.58-1.47.71-.53.51-.69,13.6a11.68,11.68,0,0,0,3.9,5.91c3.39.44,5.47-.59,6-3.91C765,194,765.84,193.44,762,191.44Zm-1.23,2.8c-.16,1,3.58,12-3,9.18,2.56-2.91,1.69-6.16.88-9.4l-.1-.11A3,3,0,0,0,760.78,194.24Z" transform="translate(-18.39 -23.91)"/><path class="cls-1" d="M493.93,176.25a4,4,0,0,1-.9.65,2.87,2.87,0,0,1,.73.75A12.75,12.75,0,0,1,493.93,176.25Z" transform="translate(-18.39 -23.91)"/><path class="cls-1" d="M617.68,210.92l.27.19-.27-.19Z" transform="translate(-18.39 -23.91)"/><path class="cls-1" d="M590.19,195.11h-.39l.34.24C590.16,195.27,590.17,195.19,590.19,195.11Z" transform="translate(-18.39 -23.91)"/><path d="M400.77,216.18c.14.15.28.28.42.4l-.42-.4Z" transform="translate(-18.39 -23.91)"/><path d="M400.77,216.18c1.8,1.8,3.51,1.7,6,1.11C407.13,215.8,405.36,213.89,400.77,216.18Z" transform="translate(-18.39 -23.91)"/><path d="M460.12,207.08c-3.31,3.61-3-4.64-3.22-7.88,7-12.46-2.66-11.91.5-21.94,7.08-.33,14-6.52,8.6-10.93-1.94-4-9.35,1-9.35-5.52,0-2.83,3.69-11-3.4-11-3.41,0-7,3.34-7.1,7.33-1.56,1.56-4.09,8.54-11,8.92-.52-3.07-3.09-1.66-4.77-2.18-.34-1.56,1.79-1.44,1.86-2.72,9.15-1.84-5.55-15.18-7.68-15.18-1.72,0-9.24,8.06-9.51,9.07-2-.36-3.83-1.38-5.9-.72-2.4-.19-4.09,2.6-6.68,1.57-1.78-1.9-3.68-3.9-5.6-2.17-5.28,2.48-5.46,15.23-7,19.29-1,1-1.2,5.55-.91,5.91-1,0-2.08.31-2.69-.9.24-5-1.52-10.29,2-14.88,7.82-5.23-2.56-9-4-9.12-29.83-1.61-18.44,2.26-15.87,23-5.44,7.92-5.44,7.92-.22,17.06.22,1.39-1.24-.58-1.27,9.55-1.23,3.28-.36,7.35-2.76,10.11s4,6.46,6.33,6.46c2.56,0,6-3.08,6.93-3.08,1.42,0,3.91,5.07,9.76,1.91,2.26-.41,3.16-2.3,4.29-3.94-1.54-6-7.43-16.33-2.18-15.8-2.57,9.51,5.81,18.62,6.81,19,2.47,2.47,4.47.53,9.36.53,2.36,0,4.13,2.86,7.69.32.47-.07,12.86-1.23,14-1,4.63,3.5,6.27-2.21,9-2.15,4.5,2.13,26,5.09,28.07,1.22,10.46-2.11,10.55-30.34,3-24.4C458.5,199.74,463.9,199.26,460.12,207.08Zm-25.18-34.52c.48,4.43.18,3.24,2.54,5.53,2.65,2.57,2,9.83-3.55,9.88.76-1.42,1.39-12.52-.48-14.47C433.9,173.2,435.43,171.76,434.94,172.55Zm-16.48-17.47c2.34-.11,3.47-1.48,3.7-3.8,10.26,6,9,8.44,7.7,7.54-2.5.51-3.9,1.74-3.71,4.27h0c-2.19.47-3.9-.56-5.59-1.65C420.58,159.09,418.22,157.49,418.47,155.09Zm-5.95,61c-3-.53,2.1,1-7.06-1.56-2.46,0-.56-3.32-6,2.41h-.08l0-.07a57.75,57.75,0,0,1-6.72-22.21c-.24-2.76-3.31-5.77-6.08-5.77-11.08,0-1,27-1,28a9.84,9.84,0,0,0-7.12-1.78c-2.15-4-4.93,1.76-11.66.91h0c1.28-2.85,5-4.74,3.35-8.74v0c5.76-.14-.19-21-.19-22,0-4.44,2.74-7.94,2.74-12.12,0-6.08-3.65-11.73-3.71-15.2,4.83,2.41,13.73,5.11,13.58-.72,2.1-.25,4.08,3.22,4.31,4.53l.15.17a2,2,0,0,0-.65-.1c-5.73,1.77-3.61,18-2.29,21.7a5.66,5.66,0,0,0,5.76.15c1.38-1.3,5-3.27,3.25-9.16,2.78-2.51,2.75-5.56,1.17-8.92,3-1.87,3.19-5.22,4.22-8.12,1,.44,7.72,7.17,10.93-.1,6.42,5.5,1.88,2.81,2.6,4.72-1-.14-6,1.64-6.12,8.72-.42,1.46-1,.33-2,11.09-3.55,3.12-6,4.47-3.81,6.94,6.84,3.88,1.56,10.72,10.91,24.33C411.46,214.17,413,214.93,412.52,216.11Zm1.82-8.45c-.72,1.82-2.44.66-3.63,1.08a69.32,69.32,0,0,0-2.35-8.52c2.64-6.44-1.18-9.39-2.81-15.31,2.78-1,3-3,1.68-5.63h0c.12-.19,4.56-11.75,4.56-11.75.39.12,3.39,17.41,2,21.41,0,.12.12.22.17.33-4.13,1.7,1.71,11.82,2.71,12.7C414.62,203.23,415.68,206,414.34,207.66Zm2.47,6.72c-.39-1.41,1.87-8.49,2.38-10.23,3-3.8-2.77-10-2.88-12.73,11.93-15.35-9.6-24.49,5.91-24.37l-.09.12c2,1.26,4.43.55,4,0l4.73-.13s-1.22,11.21-1.22,12.63c0,13.15,5.4,12.62.73,15.55-.63,6.13-2,7.19-.32,10,.12,6.16,0,3.32,2.77,7.59C429.28,215.81,424.44,211.27,416.8,214.37Zm19-3a6.26,6.26,0,0,0-2.55-4.44c2.64-2.88-.53-9.23,3-11.71,4.28,5,1.67,11.11,2.8,14.51A4.25,4.25,0,0,0,435.84,211.33ZM467.32,205c-3.35,14.48-10.89,7.4-13.52,10.2-5.34-5.78-9.32,1.31-14.27-2.14,9-8.18-.78-19.48,1.54-23.43s1.84-8.45,1.48-13c-.41-5.09-6.6-1.85-5.09-7.33,12.87.37,8.87-13.83,13.9-13.83,3.66,0-.6,9.85,3.11,12.29.3,3.67,5.69-.59,7.43,5.09.65.86-4.07,1-5.35,2a1.57,1.57,0,0,0-1.61-1.09c-4.94,0-.26,18.83-.18,19.83-2.7,1.35-3.55,14.31,1.56,18.17,5.66,1.68,6.66-1.27,6.13-2.59,3.9-.4,3.64-9.07,2.14-11.31,2,.93,4.12.82,4.71,1.48C467.56,199.59,468.11,202.89,467.32,205Z" transform="translate(-18.39 -23.91)"/><path class="cls-1" d="M509.6,223.67" transform="translate(-18.39 -23.91)"/><path class="cls-1" d="M589.44,195.11" transform="translate(-18.39 -23.91)"/><path class="cls-1" d="M616.93,210.92l.27.19-.27-.19Z" transform="translate(-18.39 -23.91)"/><path d="M510.08,185.81c-.14-18.42-.54-22.8-25.18-22.53-13.53,6.75-11.34,11-12.85,20.08-1.35,2-4.32,34.81,21.62,34.81a8.94,8.94,0,0,0,7.36-3C509,217.24,512.6,185.73,510.08,185.81Zm-9.61,26.59c-2.92,1.81-4.46.16-4.63,2.5,0,0,0-.05,0-.08-5.31-1.35-10.69-2.49-15.77-4.65.46-1-.66-6.57-4.1-8.36l-.06,0c0-.42-.49-10.21-.49-10.21,0-7.76,3-9.66.86-13,.93-1.65.46-3.26,5.73-8.35,1.18-1.14,2.78-2,2.86-3.91,3.85,2.93,14.94-2.28,19.9,8.43,0,1.41-.18,12.66,0,13.29-2.19,0-4.49.38-5.91-2-2.07-3.6-5.44.43-7.83-1.33-1.79-4.13.3-.86,3.18-4.54h0C497.32,177,495,172,492,172c-7.08,0-6,11.25-4.16,14.09h0a4.38,4.38,0,0,0,1.95,3.15h0c.44,2.68-6.4,8.46-1.31,16.76,2,3.22,11.52,5,11.34-6.2,2.76-1.65,4.58-1.24,4.58,2C504.41,204.51,503.6,205.8,500.47,212.4Zm-4.08-12.59a3.07,3.07,0,0,0,.45.39c-1.14.67-1.38,3-2.8,3a3.25,3.25,0,0,1-2.77-3.31c0-5,4.39-6.19,2.64-10.66.37-.55.94-.67,1.45-1,1.82.22,8.9,5.6,10.55,2v-.1a.77.77,0,0,0,.5,0c.41,2.93,1.19,3.36,2,5C505.08,191.28,494.17,192.34,496.39,199.81Z" transform="translate(-18.39 -23.91)"/><path class="cls-1" d="M547.74,188.12c-2.28-.71-3.81-14-2.87-15.89-2.05-1.08-3.69-2.5-4.15-4.83-.13,0-8.75.27-11.29,1.16-7,2.45-2.88-11.69-2.88-12.69,0-1.84-1.23-2.11-2.2-3.11-2.52,3.9-5.24,4.38-8.14.9-1.82.57-4.6-.91-5.38,1.88a2.15,2.15,0,0,0,.67.27c4.77,4.29,3.44,14.81,3.06,16.51h0a120.45,120.45,0,0,1,.39,12.59c-.25,1.45-.22,3.1-2.17,3.38.56,1,5,13.92,1,19.91a1.37,1.37,0,0,1-.92.24l0,0c.67,2.35-.67,3.92-2,5.5,6.16-3.51,11.32-2,18-1.09l-.65-2.5-.77-.85h0c-1.49-1-3.77-11.52,1-19.1a11.5,11.5,0,0,1-3-7.91c0-18.43,15.57-9.33,9.23,4-4.7,7,3.79,11.78,0,20-.14,1.85-1.25,3.26-2.14,4.78l0,1.66c1,0,3.83-.09,6.11,0,1.52-1.33,2.91-1.49,4.25,0a30.63,30.63,0,0,0,6.94-.43C544,207.89,546,195.51,547.74,188.12Z" transform="translate(-18.39 -23.91)"/><path class="cls-1" d="M587.93,196.36h-.39l.34.24C587.9,196.53,587.91,196.45,587.93,196.36Z" transform="translate(-18.39 -23.91)"/><path class="cls-1" d="M586.06,174.94c-5.36-11.82-16.38-5.25-20.18-7.39a1.45,1.45,0,0,0,.08.5c-8.06,10-6.5,26.52-7.11,30.19a3.15,3.15,0,0,1-.41.05l0,0c3.31,4.17,4.15,9.59,7,14v.06a31.28,31.28,0,0,1,10.58,2.83l.26-.26c6.09-1.21,9-5.77,11.26-10.9,1.76-1.72,2-7.18-4-5.64-1.7,3.79.84,13.7-11,8.82-1.68-1.16-1.95-3-2.25-4.78-2.14-3.48.84-6.7.5-10.08,3.86-1.33,7.39-2.23,11-.2l7.45,0-1.56-10.74C587,179.83,587.68,176.86,586.06,174.94Z" transform="translate(-18.39 -23.91)"/><path class="cls-1" d="M615.42,212.18l.27.19-.27-.19Z" transform="translate(-18.39 -23.91)"/><path class="cls-1" d="M613.13,207.83" transform="translate(-18.39 -23.91)"/><path class="cls-1" d="M577,114.82c3.22-3,4-10.45.49-15.12A22,22,0,0,1,577,114.82Z" transform="translate(-18.39 -23.91)"/><path class="cls-1" d="M579.37,50.38c-1.46,3.31-1.33,6.51-1.17,9.71a2.54,2.54,0,0,1,1.67-1.86C579.27,55.83,581.17,53.27,579.37,50.38Z" transform="translate(-18.39 -23.91)"/><path class="cls-1" d="M686.06,58.69l.15-.15-.43-.18C685.89,58.47,686,58.57,686.06,58.69Z" transform="translate(-18.39 -23.91)"/><path class="cls-1" d="M603.93,110c1.23-2.57,1.1-1.67,1.12-3.86a3.1,3.1,0,0,0-.86-1.31c-2.13-6.15,5.7-16.31-.66-13-7.81,4.08-15,.38-22.5-.47a.91.91,0,0,1-.09-.13c-.37,1.57.42,2.71,1.27,4,14,20.77-10.59,44.17-10.59,11,0-5.7,1.17-11.39,1.3-17.1l1.92-1.89c-1.29-3.25,3.57-5,2.14-8.25,0-.1,0-.2,0-.3a3.18,3.18,0,0,1-1.23-2.46C574,74,572.87,73.8,572.87,70c0-8-3.81-11.26,0-20.88,1.06-5.46,5-7.87,9.86-6,.71,1.56,3.28,1.63,3.12,3.89,4.62,13.85-6.87,16.48-4.68,25.88l1.36.22a5.45,5.45,0,0,1,.63-.69c2.86-1.12,6.19-.18,8.89-2,4.47-1.83,7.2.5,6.82,2.45,1.94-1.7,6.22,2.15,8-.8,0,0-2.54-27.29-6.44-33.71a10.15,10.15,0,0,0-1.1-.43c-21.95-15-47.69-4.48-47.69,29.06,0,3.72.1,5.31-1,7,0,.62-3,5-3.11,5.09.24,1.89-1.9,2.71.39,4.08,4,2.39,4.33,9,4.33,15.23,0,50.3,36,32.5,37.46,32.56v0c4.34-9.35,4.54-1,18.48.06a4.22,4.22,0,0,1,1.36-.92,8.43,8.43,0,0,0,1.93-2.28C611.25,126.81,602.08,120.28,603.93,110Z" transform="translate(-18.39 -23.91)"/><path class="cls-1" d="M740.77,79l.09,0,0,.31c.78-.39,1.79-.49,2.27-1.28l.75-4.85A25,25,0,0,1,740.77,79Z" transform="translate(-18.39 -23.91)"/><path class="cls-1" d="M746,59.57l0,.32C746,59.81,746.08,59.6,746,59.57Z" transform="translate(-18.39 -23.91)"/><path class="cls-1" d="M743.34,77.32c1.71-1.94,1-4.32,1.19-7.34,0,0-.71,3.38-1.44,8.09A1.81,1.81,0,0,0,743.34,77.32Z" transform="translate(-18.39 -23.91)"/><path class="cls-1" d="M874.79,77.07V77l-.14.06Z" transform="translate(-18.39 -23.91)"/><path d="M745.39,74.26c1.26-2.16,5.06-17.78,1.13-20.83C739.46,35.13,714,39.75,709.35,47c-23.82-10.72-33,2.82-22.83,9.47.52,1,5.21,7.24,5.21,15.8,0,12.35-7.16,12.49-6.42,18.59,1.09,9,8.39,11.75.58,29.92v10.85c10.86,8.07,17.37-2.94,21.94.78,9.11,7.42,27.05-3.34,17.2-10.58l-5.34-9.49c-.69-16.81,6.58-21.94,6.58-21.95,0-5.13-4.52-6-4.52-10.13,0-1.7,4.53-1.88,6.66,1,2.37,3.19,5.08,4.7,8.24,4.7,5.66,0,7.19-2.64,8.19-3.33C745.92,75.56,742.27,77.5,745.39,74.26Zm-8.53,5c-5.5-.21-3.65-7.13-12.16-7.13-1.42,0-2.7-.29-2.7-1.71,0-2.9,3.61-4,4.61-4.73,3.95-6,2.46-10.54-4.2-12.91-8.11,3.33-5.32,6.81-8,9.41a24.31,24.31,0,0,0,1.32,18.91c8,5.82-3,13.15-.29,18.1a9.69,9.69,0,0,0-1.22,5.17c0,6.44,1.45,3.37,1.26,10,.24,1,.49,7.22,3.39,7.77,1,1.66,2.61,3.12,2.71,5.1-5.83,4.56-14.41-4.35-16.68-4.35a4.61,4.61,0,0,0-3.39,2c-6,7.15-11.59,4.59-12,1.64,2.26-11.62,6,4.22,6-27.75,0-1.68-1.36-3-1.53-4.56-.29-2.65-4.47-3.86-3.3-6.77a1.23,1.23,0,0,0,.12.1c4.46-1.62,6-6.81,4.62-8.87q0-5.11,0-10.21c2.88-5.27-3.65-14.48-5-14.94-.54-4.21,2.59-8,12.88-1.37,2.56.73,2.06,2.93,3.73,2.93,2.67,0,13.26-9.13,18.16-8.43,22.51,2.12,13.69,17.87,15.86,22.9C737.3,71.68,737.1,75.5,736.86,79.28Z" transform="translate(-18.39 -23.91)"/><path d="M954.05,90.84a11.14,11.14,0,0,0-1.23-4.56c-2.59-6.68-.78-13.83-2.19-20.63-.18-3.26-1.89-6-2.9-9,0-.82-.14-1.6-1-2-6.24-9.53-15.23-13.25-26.52-13.25-30.49,0-27.58,38.13-29.66,41.21-9.41-.29.65,55.27,31.51,55.27a30.11,30.11,0,0,0,30.24-30.72,50.62,50.62,0,0,0-.43-5.91c0-2.13-2-2.89-3.06-4.32C952.38,95.31,954.05,93.46,954.05,90.84Zm-6.48,11.81c-.69,1.1-4.32,29-17.12,29-40.54,0-27-32.32-38.72-39l0,.08,0-.05c0-.06.09-.11.13-.17-.21-4.57,6.45-7.67,4.44-11.4.25-.89.45-34,22.41-34,6.52,0,14,3.17,19.77,6.32,5,0,6.94,10.07,6.94,16.09,0,5.35-1,10.4.4,15.13a10.6,10.6,0,0,1,.49,2.93c0,3.31-5.09,5.65-5.55,5l0-.07c-2.83-2.68-5.75-4.36-13.68-2.45-1.29.47-6.57-1.9-9.66,1.61-4.83,6.63-2.15,21.77,2.62,27.06,3.43,3.81,12.75,2.59,14.75-1.92,5.54-7.49,1.19-14.08,6.74-16.06l.06.07c.34.21,2.72-.31,6,1.81Zm-13.92,3.76c-3,1.6-1,7.66-6.09,7.66-2,0-2.64-.62-4.8,0-1.49-25.17-6.2-13.81,12.86-17.14C934.84,98.25,929.92,102.57,933.65,106.41Z" transform="translate(-18.39 -23.91)"/><path d="M745.76,59.65a.3.3,0,0,1,.2-.08l.64-4.11A3,3,0,0,0,745.76,59.65Z" transform="translate(-18.39 -23.91)"/><path d="M812,84.59c-2.5-2.46-3.15-2.81-3.29-3.76-1.34-9.16-3.54-40.54-29.76-40.54-15.84,0-25.16,11.46-27,13.35a1.87,1.87,0,0,0-.38.57c-.85,2-5.21,12.44-5,18.32a1.44,1.44,0,0,1,0,.21c-2.13,18.37,9,10.31,5.18,14.4-.93,1-9.8,17.54-9.8,19.35,0,2.22,3.39,9.24,4.45,10.9.64,1,10.56,27.92,30,19.87,7-2.31,10.27-4.56,11.67-6a1.82,1.82,0,0,1,2.41-.11c7.11,5.43,18.43,4.05,22.42-.59a2.1,2.1,0,0,0,.24-.34c2.32-4.17.51-4.91-5-16.39a1.88,1.88,0,0,1-.18-.73c-.3-8.72-.47-14.78,4.2-19.25.76.38.55,1.64-.14-9.31Zm-4.83,6.56c-3.2.24-5.81,8.74-5.81,16.29,0,9,3,13.9,4.73,19.3,1.33,4-10.38,3.3-11.21,1.18s-4-7.53-7.07-7.53c-.73,0-9.9,10-10.29,10.56-.08.6-17.45-2.08-18.41-3.5-27.8-40.8,20.52-42.28,21.12-50l-.09,0c3.74-1.27,2.56-11.58,1.93-15.74a1.73,1.73,0,0,1,0-.54c1.23-7.74-11.66-12.42-11.66-.11,0,4.48,2.87,5.75,3.51,6.75,5.62,8.8-.75,7.49-3.58,7.5-1.86,0-1.92-2.78-4.28-2.78-2.68,0-3.24,3.46-6.75,5.41a1.82,1.82,0,0,1-2.65-2c.94-3.75-.68-7.31-.68-11.27,0-10.91,13-18.09,16.83-18.09,2.75,0,5.16,1.5,12.87-.2h.09c1.51,0,15,8,15,25.93,0,2,.37,3.94,2.06,5.32l.12,0c.3,7.16,3.24,8.2,5.46,10.44A1.83,1.83,0,0,1,807.19,91.15Z" transform="translate(-18.39 -23.91)"/><path class="cls-1" d="M432.29,75.2l-.33.41.09,1a5.34,5.34,0,0,1,.2-1.39Z" transform="translate(-18.39 -23.91)"/><path class="cls-1" d="M396.55,99.65c1.6,2.63-.18,8.67,1.66,13.63,2.79-4.61-1-9.76,1.31-12.68C398.43,100.66,397.55,100,396.55,99.65Z" transform="translate(-18.39 -23.91)"/><path class="cls-1" d="M423.5,62.22C420.21,23.34,392.91,23.91,376.38,40v0c0,1.37-6.11,39.72-9.49,39.72,0,2.34,1.77,3.9,3.3,6.12,3.19,4.65,2.82,20.31,3.9,25.47,5.41,25.93,32.84,22.26,43.86,13.75,5.2-9.87,3.84-15.86,6-30.53.16-1.2,1.31-2.41,1.31-3.58,0-5.35-8.68,1.59-12.45,1.59s-5.13-3.14-8-3.14c-1.21,0-7.27,1.36-3.84,4.13,1.14,2.38.89,1.59,1.16,3.59,5.17,8.21,4.26,12.79,1.78,22.21-.9,1.5-2.81,1.05-4,2.07-13.49,4.23-10.24-35.61-5.41-38.56a1.33,1.33,0,0,1,0-.23,9.84,9.84,0,0,0,1.63-3.79c-9-6.77-11-38.42,2.92-38.42,4,0,7.91,4.51,7.91,10.51,0,5.67-3.59,12.2-7,20.62l.12.14a7,7,0,0,1,.71-1c12.81-2.4,13.23-3.57,17.18-.35a6,6,0,0,0,4.62,1.85c1.89,0,3.06,0,4.27-2.31C424.49,68.86,423.72,64.78,423.5,62.22Z" transform="translate(-18.39 -23.91)"/><path class="cls-1" d="M436.24,43.44a4.28,4.28,0,0,1,.24,1.33c0,.44-.21,5.7-.21,11.86,0,7.94.28,17.37,1.51,19.84,8.57-2.1,6.88-31.27,7.4-32.53.1-.15.18-.3.28-.45a6.06,6.06,0,0,0-3.5-1C440.07,42.46,438.15,43.15,436.24,43.44Z" transform="translate(-18.39 -23.91)"/><path d="M442.17,34.59c-4.88,0-10.18,5-12,13.41,2.78,31,1.87,30.28,5.58,31.78a9.69,9.69,0,0,0,5.16,1.59c3.74,0,7-2.55,7.75-7,1.16-6.55,2.81-15.55,2.81-22.89C451.51,39.66,447.06,34.59,442.17,34.59Zm3.69,8.74c-.52,1.26,1.17,30.43-7.4,32.53-2.38-4.8-1.09-31.73-1.55-33C437.92,42.67,445.47,40.5,445.86,43.33Z" transform="translate(-18.39 -23.91)"/><path class="cls-1" d="M577,114.82c3.22-3,4-10.45.49-15.12A22,22,0,0,1,577,114.82Z" transform="translate(-18.39 -23.91)"/><path class="cls-1" d="M579.37,50.38c-1.46,3.31-1.33,6.51-1.17,9.71a2.54,2.54,0,0,1,1.67-1.86C579.27,55.83,581.17,53.27,579.37,50.38Z" transform="translate(-18.39 -23.91)"/><path class="cls-1" d="M603.93,110c1.23-2.57,1.1-1.67,1.12-3.86a3.1,3.1,0,0,0-.86-1.31c-2-5.75,5.46-16.18-.66-13-7.81,4.08-15,.38-22.5-.47a.91.91,0,0,1-.09-.13c-.37,1.57.42,2.71,1.27,4,14,20.77-10.59,44.17-10.59,11,0-5.7,1.17-11.39,1.3-17.1l1.92-1.89c-1.29-3.25,3.57-5,2.14-8.25,0-.1,0-.2,0-.3a3.18,3.18,0,0,1-1.23-2.46c-7.18-8.44-6.86-38.51,7-33.06.71,1.56,3.28,1.63,3.12,3.89,4.63,13.88-6.88,16.46-4.68,25.88l1.36.22a5.45,5.45,0,0,1,.63-.69c2.86-1.12,6.19-.18,8.89-2,4.47-1.82,7.21.48,6.82,2.45,1.94-1.7,6.22,2.15,8-.8,0,0-2.54-27.29-6.44-33.71a10.15,10.15,0,0,0-1.1-.43c-11.1-7.61-42.9-16.65-47.63,25.36-.21,6.53.37,8.52-1.1,10.74,0,.62-3,5-3.11,5.09.24,1.89-1.9,2.71.39,4.08,9.52,5.68-4.63,66.66,41.8,47.79v0c4.81-10.35,6.69.14,14.14.14,1.45,0,2.9-.19,4.34-.08a4.22,4.22,0,0,1,1.36-.92,8.43,8.43,0,0,0,1.93-2.28C611.25,126.81,602.08,120.3,603.93,110Z" transform="translate(-18.39 -23.91)"/><path d="M613.54,95.91C617.76,91.47,610,85,605.19,85c-3.13,0-9.41,4.15-18.36.39-1.16-.49-2.59-.31-4.15-.47,1.39-1.55,1.23-3.22,1.07-4.88,3.56-1.78,8-1.24,11.11-4.13,3.75,2,7.44,4.3,12,3,5.39-.07,9.74-4.36,7.58-8-1.54-2.56-2.25-5.34-3.62-7.88-1.62-9.15-.08-37.65-29.75-37.65C555.77,25.39,547,39.56,547,64.68c0,15.1-6.26,9.82-6.26,16.81,0,2.32,5.31,10.67,6.11,11.67C547.32,107.93,545,139,576,139c5.63,0,13.51-1,17-5.86,16,3.94,16.14,6.32,25.55-6.59l-1.17-2.08C614.9,126.11,603,107,613.54,95.91Zm-9.67,35.18c-7.38,0-9.37-10.41-14.14-.14v0c-46.51,18.9-32.22-42.07-41.8-47.79-4.73-2.82,2.6-5.8,2.72-9.17,1.31-2-1.65-42.57,28-42.57a39.24,39.24,0,0,1,20.74,6.46c4.75,1.55,7.37,34.15,7.54,34.15-2.7,4.46-8.74-4.14-14.83-1.65-1,.69-11.58,4.45-11.13-.69.5-5.68,6.09-8.92,6.09-17,0-14.36-15.84-14-15.84,4,0,2.77,2,19.36,5.81,21.92,0,.1,0,.2,0,.3.79,1.83-2.65,8.75-4.06,10.14,0,1.86-5,33.81,6.34,33.81,5.4,0,10.85-16,2.94-27.68-.85-1.27-1.64-2.41-1.27-4a.91.91,0,0,0,.09.13c7.46.86,14.69,4.55,22.5.47,1.72-.9,2.55-.29,2.55,1.14,0,4.35-4,3.48-1,13.15,0,2.19.11,1.29-1.12,3.86-1.86,10.35,7.31,16.84,7.57,17.84C610,131.65,604.87,131.09,603.87,131.09Zm-24-72.86a2.54,2.54,0,0,0-1.67,1.86c-.15-3.15-.3-6.39,1.17-9.71C581.17,53.27,579.27,55.83,579.86,58.23Zm-2.39,41.48c3.49,4.64,2.75,12.1-.49,15.12A22,22,0,0,0,577.47,99.71Z" transform="translate(-18.39 -23.91)"/><line class="cls-1" x1="602.61" y1="102.34" x2="602.8" y2="102.53"/><path class="cls-1" d="M813.62,178.27c-3.75-1-.25-10.64-13.79-10.64-18.95,0-9,13.34-13.59,16.82a2.22,2.22,0,0,1-.78.12c0,1.2.81,1.69,1.94,1.84,3.86-1.16,5.08-4.31,10.41-4.31,3.92,0-2.23-3.89-2.23-8.1,0-2.49,1.49-4.23,4.2-3.31,3.71,1.26,3.18,11.51.79,13.73-1.2,1.87-3.1,2.51-5.13,2.92l0,0c-.18.24-7.79,2.84-8,2.92-1.36.57-2.91,4.75-3.34,5.88a19.24,19.24,0,0,1-.19,2.76c-2.19,4.92,3.44,7.45,1.84,10.4h0c5.2,4.71,11.38,4,17.59,3.1l4.45-1.54c1.39.59,2.63,1.29,2.75,2.91,7.41-1,2.58-6.28,4.06-10.27-1.54-2.57.22-3.32-.22-5.2C816.76,184.47,810.86,185.41,813.62,178.27Zm-15.44,32c-10.82,0,3.67-36.46,3.67-11.28H802C801.55,206.17,802.14,210.22,798.19,210.22Z" transform="translate(-18.39 -23.91)"/><path class="cls-1" d="M772.76,187.09c-2.72-1.64,2.47-4.19,3-6.87h0a3.72,3.72,0,0,1-.8-.27,19,19,0,0,0,.55-5c0-15.72-6-15.81-11.49-17.12-8.15-2-1.75-.25-14.78,1.11-3.41-.63-1.95-2.73-4.74-2.68-3.78,4,6.11,16.76-1.6,26.56l-.24.13c2,9,3.28,12.76,3.28,16.88,0,6.18-2.84,11.25-2.25,14.41,1.13-1.1,5.48-3.7,9.17-2.78,3.11,2,7.16.63,10.37,2.32a2.5,2.5,0,0,0,.35-.16c9.7.33,13.85-10.61,12.59-19.11a2,2,0,0,1,.28-.32C775.4,191.72,775.5,188.75,772.76,187.09Z" transform="translate(-18.39 -23.91)"/><path class="cls-1" d="M817.27,200.58c0,1.38,1.85,7,3.41,7,2.05,0,2.14-4.62,2.92-6.14a7.65,7.65,0,0,0-1-4.45C819.94,192.85,818.68,199.8,817.27,200.58Z" transform="translate(-18.39 -23.91)"/><path class="cls-1" d="M837.09,168.58c0,.05,0,.1,0,.16-1.7,7.46-11.81-4.88-11.81.76,0,3.29,3.09,7.49,3.09,12.07,0,5-2.44,5.7-2.44,9.29,0,2.58.79,2.54.74,5.89,1.76,4.64-.71,8,0,10.2a20.08,20.08,0,0,1-1,4.51c0,3.9,5.33-1.33,7.6-.6,2.11,1.75,4.33,2.71,7,2.07,2.06-.9-1-3.18-.95-4.41.14-.33.07-.16-.24,0-6.11-4.45,1.55-13.6-1.51-25.54,0,0,.8-7.5.8-7.5,0-1.39-.64-3.08,1.81-3.29,3.12-4.25,5.6,1.33,5.6,2.33,0,2.07-4.86,5-4.86,6.36,0,1.14,5-.49,9.21,4.5,1.37,2.65,2.5-9.51,2.5-10.51C852.64,163.63,839.59,169,837.09,168.58Z" transform="translate(-18.39 -23.91)"/><path class="cls-1" d="M772.76,187.09c-2.72-1.64,2.47-4.19,3-6.87h0a3.72,3.72,0,0,1-.8-.27,19,19,0,0,0,.55-5c0-15.72-6-15.81-11.49-17.12-8.15-2-1.75-.25-14.78,1.11-3.41-.63-1.95-2.73-4.74-2.68-3.78,4,6.11,16.76-1.6,26.56l-.24.13c2,9,3.28,12.76,3.28,16.88,0,6.18-2.84,11.25-2.25,14.41,1.13-1.1,5.48-3.7,9.17-2.78,3.11,2,7.16.63,10.37,2.32a2.5,2.5,0,0,0,.35-.16c9.7.33,13.85-10.61,12.59-19.11a2,2,0,0,1,.28-.32C775.4,191.72,775.5,188.75,772.76,187.09Z" transform="translate(-18.39 -23.91)"/><path class="cls-1" d="M817.27,200.58c0,1.38,1.85,7,3.41,7,2.05,0,2.14-4.62,2.92-6.14a7.65,7.65,0,0,0-1-4.45C819.94,192.85,818.68,199.8,817.27,200.58Z" transform="translate(-18.39 -23.91)"/><path class="cls-1" d="M797.35,200.56c0,5.28-.25,5.08-.25,5.08,0,1,1.81,2.28,1.81-1.07,0,0,.23.48.23-6,0-.91.48-1.46.48-1.91C799.62,194.64,797.35,197.92,797.35,200.56Z" transform="translate(-18.39 -23.91)"/><path class="cls-1" d="M813.62,178.27c-3.75-1-.25-10.64-13.79-10.64-18.95,0-9,13.34-13.59,16.82a2.22,2.22,0,0,1-.78.12c0,1.2.81,1.69,1.94,1.84,3.86-1.16,5.08-4.31,10.41-4.31,3.92,0-2.23-3.89-2.23-8.1,0-2.49,1.49-4.23,4.2-3.31,3.71,1.26,3.18,11.51.79,13.73-1.2,1.87-3.1,2.51-5.13,2.92l0,0c-.18.24-7.79,2.84-8,2.92-1.36.57-2.91,4.75-3.34,5.88a19.24,19.24,0,0,1-.19,2.76c-2.19,4.92,3.44,7.45,1.84,10.4h0c5.2,4.71,11.38,4,17.59,3.1l4.45-1.54c1.39.59,2.63,1.29,2.75,2.91,7.41-1,2.58-6.28,4.06-10.27-1.54-2.57.22-3.32-.22-5.2C816.76,184.47,810.86,185.41,813.62,178.27Zm-15.44,32c-10.82,0,3.67-36.46,3.67-11.28H802C801.55,206.17,802.14,210.22,798.19,210.22Z" transform="translate(-18.39 -23.91)"/><path class="cls-1" d="M837.09,168.58c0,.05,0,.1,0,.16-1.7,7.46-11.81-4.88-11.81.76,0,3.29,3.09,7.49,3.09,12.07,0,5-2.44,5.7-2.44,9.29,0,2.58.79,2.54.74,5.89,1.76,4.64-.71,8,0,10.2a20.08,20.08,0,0,1-1,4.51c0,3.9,5.33-1.33,7.6-.6,2.11,1.75,4.33,2.71,7,2.07,2.06-.9-1-3.18-.95-4.41.14-.33.07-.16-.24,0-6.11-4.45,1.55-13.6-1.51-25.54,0,0,.8-7.5.8-7.5,0-1.39-.64-3.08,1.81-3.29,3.12-4.25,5.6,1.33,5.6,2.33,0,2.07-4.86,5-4.86,6.36,0,1.14,5-.49,9.21,4.5,1.37,2.65,2.5-9.51,2.5-10.51C852.64,163.63,839.59,169,837.09,168.58Z" transform="translate(-18.39 -23.91)"/><path d="M856.23,180.32c2.84-25-17.66-17.08-20.81-13.86-4.14.38-5.07-3.45-9.34-3.45-2.75,0-6.87,2.46-6.87,5.09,0,3.52,4.5,4.15,4.5,10.9,0,14.8-6,8.73-6.28,6.28-.56-5.07.87-8.11-1.93-11-.52-1.76,1-4.36-2.06-5.08-4.28-6.77-16.38-8.67-23-3.62-8.75,2.17-6.92,13-6.83,17.74-.53,1.19-2.42,2.21-.9,3.7,2.69,2.62-.62,7.09-1.64,7.62a3.21,3.21,0,0,1-1.71-.86,4.39,4.39,0,0,0-.93-.21c-.22-2.11.68-4.44-1.35-6.22-2.19-1.92,1.78-2,1.16-10,1.88-2.35,4.42-4.44,3.15-8-5.8-1.94.49-10.45-7.19-12.89-2-2.83-29.43-3.21-30.43-3.21-2.48,0-9.48,3.73-6.35,7,7.61,8,3,18.28,3,21.07-.93,2.26-5.51,4-1,7,3.41,7.69,3.59,15.1-.9,22.25-4.82,3.53,4.28,7.81,5.71,7.81,2.5,0,3.63-2.8,6.62-2.8,2.41,0,10.7,4.81,15.86,1.79,2.82-.58,3.33-.08,4.84-2.07,5.28-.06,8.19-8.21,8.85-9.21,0,1.92,1.21,2.33,1.88,3.33,2.57,2.17,0,3.23,2.18,3.91,2.44,3.48,7.12,5.24,11.67,5.24,9.43,0,6.52-4.93,13.22-2,2.26,1.31,3.86,2.62,6.53.83,6-4.18,6.72.92,10.22.92,2.83,0,3.76-2.46,6.3-2.46s3.53,2.35,6.65,2.35c3.39,0,6.51-3.78,6.51-5.65s-2.55-3-3.83-4.42l-.41-5.88c4.72-19.24,2.29-8.39.8-17.92l2.89.08c0,1,3.16,6,8.46,4.59.79-.93,2.66-1.24,2.66-2.62,0-1.13-.95-1.61-.95-2.59C855.11,182.64,856.42,181.57,856.23,180.32ZM763.55,213.6a2.5,2.5,0,0,1-.35.16c-3.21-1.69-7.26-.28-10.37-2.32-3.69-.92-8,1.68-9.17,2.78-.59-3.16,2.25-8.23,2.25-14.41,0-4.12-1.29-7.88-3.28-16.88l.24-.13c7.71-9.8-2.17-22.54,1.6-26.56,2.79,0,1.33,2,4.74,2.68,13-1.36,6.63-3.07,14.78-1.11,5.45,1.31,11.49,1.4,11.49,17.12a19,19,0,0,1-.55,5,3.72,3.72,0,0,0,.8.27h0c-.5,2.67-5.69,5.22-3,6.87s2.64,4.62,3.67,7.07a2,2,0,0,0-.28.32C777.4,203,773.25,213.93,763.55,213.6Zm51-10.09c-1.48,4,3.35,9.24-4.06,10.27-.11-1.62-1.36-2.32-2.75-2.91l-4.45,1.54c-6.2.88-12.39,1.61-17.59-3.1h0c1.6-3-4-5.48-1.84-10.4a19.24,19.24,0,0,0,.19-2.76c.43-1.14,2-5.32,3.34-5.88.25-.07,7.86-2.67,8-2.92l0,0c2-.41,3.93-1,5.13-2.92,2.4-2.22,2.92-12.47-.79-13.73-2.71-.92-4.2.82-4.2,3.31,0,4.21,6.15,8.1,2.23,8.1-5.34,0-6.55,3.15-10.41,4.31-1.13-.15-1.91-.63-1.94-1.84a2.22,2.22,0,0,0,.78-.12c4.59-3.48-5.36-16.82,13.59-16.82,13.53,0,10,9.64,13.79,10.64-2.76,7.14,3.14,6.2.67,20C814.73,200.19,813,200.94,814.51,203.51Zm9.09-2.1c-.78,1.52-.87,6.14-2.92,6.14-1.56,0-3.44-5.59-3.41-7,1.41-.78,2.67-7.73,5.38-3.62A7.65,7.65,0,0,1,823.6,201.41Zm26.54-16c-4.24-5-9.21-3.35-9.21-4.5,0-1.37,4.86-4.3,4.86-6.36,0-1-2.48-6.59-5.6-2.33-2.45.21-1.81,1.9-1.81,3.29,0,0-.8,7.49-.8,7.5,3.06,11.94-4.59,21.09,1.51,25.54.31-.19.37-.36.24,0-.07,1.23,3,3.51.95,4.41-2.64.65-4.86-.31-7-2.07-2.27-.74-7.6,4.5-7.6.6a20.08,20.08,0,0,0,1-4.51c-.69-2.22,1.78-5.56,0-10.2,0-3.35-.74-3.32-.74-5.89,0-3.58,2.44-4.28,2.44-9.29,0-4.58-3.09-8.78-3.09-12.07,0-5.64,10.11,6.7,11.81-.76,0-.05,0-.1,0-.16,2.5.38,15.55-4.95,15.55,6.32C852.64,175.9,851.51,188.05,850.14,185.41Z" transform="translate(-18.39 -23.91)"/><path class="cls-1" d="M797.35,200.56c0,5.28-.25,5.08-.25,5.08,0,1,1.81,2.28,1.81-1.07,0,0,.23.48.23-6,0-.91.48-1.46.48-1.91C799.62,194.64,797.35,197.92,797.35,200.56Z" transform="translate(-18.39 -23.91)"/><path d="M801.86,198.94c0-25.18-14.5,11.28-3.67,11.28,4,0,3.37-4.06,3.79-11.27Zm-3.51,7c-1,0-1.27-1.9-1.27-2.9,0-2.06,1.82-6.9,1.85-6.9a.61.61,0,0,0-.08.27.31.31,0,0,0,0,.11,11.67,11.67,0,0,1,.67,4.07C799.55,201.45,799.19,205.92,798.35,205.92Z" transform="translate(-18.39 -23.91)"/><path class="cls-1" d="M633.15,201.21c3.61-4.16,2.24-9.86,2.24-9.86-3.66-1.76-3.39-9.39-1.63-11.16v0c-2.2-.43-1.22-.75-4.3-9.55a10.06,10.06,0,0,1-2.9-2.58c-1.66.54-10.48.72-12.87-.34-3.1,6.29-6,5.56-10.51-.07-.9.48-.94.39-4.62-.21l-1.46,4.28c8.1,9.87.53,15,1.31,21.5,4.5,2.41,3.35,15.07-.25,21.41,8.78-4,10.32-1.72,17.63,0l.05.05c.34-4.65-2.26-2.61-2.09-5.53,0,0-1.32-1-1.32-5.47,2.53-8.63-4.48-37.05,7.56-29.83h0c2.29,1.83,3.68,8.8,1.91,11.18-.87,1.37-.47,3.53-2,4.34-3.37,1.72-.71,3,.15,4.37,5,17.56-1.4,15.63-.88,20.72a21,21,0,0,1,17-.21C633,210.26,631.52,206.09,633.15,201.21Z" transform="translate(-18.39 -23.91)"/><path d="M640.34,212.16c-7.68-6.74-.3-21-2-22.39-4.63-2.32,3.58-15.89-10.37-23.9a12.82,12.82,0,0,0-7.82-2.3c-10.92,0-7.84,7.13-15.27,1.43-.95-1.39-8.57-2.42-12.22,4,.31,2,.36,1.93,1.79,3,2.9,4.58,2.77,8.3,2.68,13.28-2.81,2.21-2.79,13.63,0,13.62-.12.18-2.85,16.38-2.87,16.59,7.41,6.5,8.91,1,12.68,1,3.2,0,5.84,4.8,10.19.58,9.52,3.69,12.21-3.45,16.83,1.71C635.52,220.58,642.77,214.3,640.34,212.16Zm-23.4-4.33c-.54-1-1.31-4.46-.56-9.71C619.8,201.46,616.88,206.46,616.93,207.83Zm0-22c-1,0-2.12-7,.88-8.56C617.68,178.25,619,185.81,616.93,185.81Zm2.19,28.63c-.52-5.09,5.89-3.16.88-20.72-.86-1.41-3.52-2.65-.15-4.37,1.57-.8,1.17-3,2-4.34,1.77-2.38.38-9.36-1.91-11.18h0c-12-7.22-5,21.21-7.56,29.83,0,4.51,1.32,5.47,1.32,5.47-.17,2.92,2.43.88,2.09,5.53l-.05-.05c-7.31-1.75-8.85-4.06-17.63,0,3.61-6.34,4.75-19,.25-21.41-.78-6.54,6.79-11.63-1.31-21.5l1.46-4.28c3.68.6,3.72.69,4.62.21,4.46,5.63,7.41,6.36,10.51.07,2.39,1.06,11.21.89,12.87.34a10.06,10.06,0,0,0,2.9,2.58c3.08,8.8,2.11,9.12,4.3,9.55v0c-1.76,1.77-2,9.4,1.63,11.16,0,0,1.37,5.7-2.24,9.86-1.62,4.88-.15,9.05,3,13A21,21,0,0,0,619.12,214.45Z" transform="translate(-18.39 -23.91)"/><path class="cls-1" d="M574.5,197.44c-.49,3.69,1.34,4,1.88,5,0-.31,2.52.08,2.56-.94.24-5.53-1.3-4.27-2.7-5.63C576.18,196.23,574.63,196.43,574.5,197.44Z" transform="translate(-18.39 -23.91)"/><path class="cls-1" d="M547.7,188.3c0,3.58-4.56-12.57-2.83-16.07-2.05-1.08-3.69-2.5-4.15-4.83l-.05,0c-28,4.55-7.67-5.83-16.31-14.67-2.52,3.9-5.24,4.38-8.14.9-11.69,3.68,2.6-.34-1.65,18.66h0c.46,4.93,1.79,15.45-1.78,16,1.41,2.54,4.86,20.64.06,20.15l0,0c.67,2.35-.67,3.92-2,5.5,6.16-3.51,11.32-2,18-1.09-.47-1.8-7-12-.46-22.45a11.5,11.5,0,0,1-3-7.91c0-18.45,15.48-9.13,9.23,4-4.7,7,3.79,11.78,0,20-.23,3.11-2.11,3-2.16,6.44,1,0,3.83-.09,6.11,0,1.52-1.33,2.91-1.49,4.25,0a30.63,30.63,0,0,0,6.94-.43C542.52,206.73,547.7,192.38,547.7,188.3Z" transform="translate(-18.39 -23.91)"/><path class="cls-1" d="M589.35,192.18c-2.3-15.86-2.27-16-3.29-17.24-5.59-12.31-27.31-10.9-27.31,14.09,0,3.14.62,6.13.1,9.21,0,0,5.84,12.87,6.62,14.07v.06a31.28,31.28,0,0,1,10.58,2.83l.26-.26c6.09-1.21,9-5.77,11.26-10.9,1.86-1.82,1.82-7.13-4-5.64-1.7,3.79.84,13.7-11,8.82-1.68-1.16-1.95-3-2.25-4.78-2.14-3.48.84-6.7.5-10.08,3.9-1.34,7.41-2.22,11-.2Z" transform="translate(-18.39 -23.91)"/><path d="M590.9,196.09c3-1.74,4.2-9.32.75-7.82a56.37,56.37,0,0,1,0-7.9,9.83,9.83,0,0,0-.52-3.91c-7.22-20.29-26.67-13.86-30.7-8.56-7.84,10.3-1.92,25.74-10.2,18.39-1.49-3.16.57-13-3.53-17-.79-1.92-1.82-3.59-4.08-4-5.76-4.85-12.58.57-12.58-3.94,0-5.31,6.19-11.42-6.44-10.86a2.68,2.68,0,0,0-3,.9c-11.5-4.08-14.75,1-12,5,.62,4.19,2.16,2.53,2.16,10.52a9.61,9.61,0,0,0,.73,4c-.31,1-3.91,43.59-2.91,44.63,1.93,3.76,5,2.51,6,2.51,2.7-.86,19.46,1.71,24-1.16s3.94,1.61,8.61,1.61c1.05,0,11.39-3.32,5.39-7.91-4.7-5.22-4.16-19.91,1.91-16.11,2.44,2.66.37,16,10.12,20.85,4.91,4.6,25.39,8.93,27.92-16.12a10,10,0,0,0-1.5-2.92Zm-60.1-11.28c-1,0-2.12-7,.88-8.56C531.55,177.25,532.87,184.81,530.8,184.81Zm.07,22c-.54-1-1.31-4.46-.56-9.71C533.73,200.4,530.82,205.39,530.87,206.77Zm19,5.75a30.63,30.63,0,0,1-6.94.43c-1.34-1.51-2.73-1.35-4.25,0-2.28,0-5.11,0-6.11,0,0-3.47,1.92-3.32,2.16-6.44,3.8-8.21-4.69-13,0-20,6.25-13.14-9.23-22.46-9.23-4a11.5,11.5,0,0,0,3,7.91c-6.52,10.45,0,20.66.46,22.45-6.72-.88-11.88-2.42-18,1.09,1.32-1.58,2.66-3.15,2-5.5l0,0c4.8.49,1.36-17.61-.06-20.15,3.57-.52,2.24-11,1.78-16h0c4.25-19-10-15,1.65-18.66,2.9,3.48,5.61,3,8.14-.9,8.64,8.84-11.68,19.22,16.31,14.67l.05,0c.46,2.34,2.1,3.75,4.15,4.83-1.73,3.5,2.83,19.66,2.83,16.07C547.7,192.38,542.52,206.73,549.85,212.51Zm21-20.18c.33,3.39-2.64,6.61-.5,10.08.3,1.81.57,3.63,2.25,4.78,11.83,4.88,9.29-5,11-8.82,5.77-1.49,5.81,3.82,4,5.64-2.3,5.13-5.16,9.69-11.26,10.9l-.26.26a31.28,31.28,0,0,0-10.58-2.83v-.06c-.78-1.2-6.62-14.07-6.62-14.07.51-3.08-.1-6.07-.1-9.21,0-25,21.73-26.4,27.31-14.09,1,1.21,1,1.38,3.29,17.24l-7.45,0C578.3,190.11,574.78,191,570.88,192.33Zm8.05,9.17c0,1-2.57.63-2.56.94-.54-1-2.37-1.31-1.87-5,.13-1,1.68-1.2,1.74-1.57C577.63,197.23,579.18,196,578.94,201.5Z" transform="translate(-18.39 -23.91)"/><path d="M530.31,197.05" transform="translate(-18.39 -23.91)"/><path d="M530.8,184.81" transform="translate(-18.39 -23.91)"/><path class="cls-1" d="M422.87,88.92c-2.38,0-6.63,3.63-10.11,3.63-3.71,0-5.13-3.14-8-3.14-1.25,0-7.24,1.38-3.84,4.13,1.14,2.38.89,1.59,1.16,3.59,5.17,8.21,4.26,12.79,1.78,22.21-.9,1.5-2.81,1.05-4,2.07-13.37,4.19-10.31-35.57-5.41-38.56a1.33,1.33,0,0,1,0-.23,9.84,9.84,0,0,0,1.63-3.79c-9-6.76-8.86-32.66-2.9-36,3-1.26,6.62-4.72,11.12.3,5.89,8.11.65,16-4.39,28.43l.12.14c.19-.34,2.52-.47,2.8-.81,9.27-1.74,10.25-4.51,15.08-.56a6,6,0,0,0,4.62,1.85c1.89,0,3.06,0,4.27-2.31-2.36-1-3.13-5.08-3.35-7.64C420.21,23.34,392.91,23.91,376.38,40v0c0,1.37-6.11,39.72-9.49,39.72,0,2.34,1.77,3.9,3.3,6.12,6.26,9.13-4.15,45.5,28,45.5,4.88,0,13.15-1.2,19.72-6.27,5.14-9.76,4-16.9,6-30.53C424,93.54,427.22,88.92,422.87,88.92Z" transform="translate(-18.39 -23.91)"/><path class="cls-1" d="M396.55,99.65c1.61,2.65-.19,8.66,1.66,13.63,2.79-4.61-1-9.76,1.31-12.68C398.43,100.66,397.55,100,396.55,99.65Z" transform="translate(-18.39 -23.91)"/><path d="M417,84.47c-7,3.57-1.45-.27-16.44,0,1-2.17,2-3.95,1.49-6,5.54-1.7,10.91-5.73,16.9-1.21,6.17.15,3.74.15,11,0,1.61-.47,8-53.37-30.69-53.37-41,0-29.13,39.75-34.62,49.42-12,8.85,2.34,5,2.35,36.18,0,13.26,12.38,28.49,30.51,28.49,40.23,0,27.75-36,33.84-44.11A6.92,6.92,0,0,0,433,89.82C433,87.14,427.33,79.19,417,84.47Zm6.92,10.07c-2,13.64-.83,20.78-6,30.53-6.57,5.07-14.83,6.27-19.72,6.27-32.2,0-21.78-36.37-28-45.5-1.52-2.22-3.3-3.78-3.3-6.12,3.38,0,9.49-38.35,9.49-39.72v0c16.53-16.07,43.83-16.65,47.12,22.23.22,2.56,1,6.64,3.35,7.64-1.21,2.26-2.38,2.31-4.27,2.31A6,6,0,0,1,418,70.31c-4.83-4-5.8-1.18-15.08.56-.28.34-2.61.47-2.8.81l-.12-.14c5-12.47,10.28-20.32,4.39-28.43-4.5-5-8.08-1.56-11.12-.3-6,3.36-6.1,29.26,2.9,36a9.84,9.84,0,0,1-1.63,3.79,1.33,1.33,0,0,0,0,.23c-4.9,3-8,42.75,5.41,38.56,1.15-1,3.06-.57,4-2.07,2.49-9.42,3.39-14-1.78-22.21-.27-2,0-1.22-1.16-3.59-3.41-2.74,2.58-4.13,3.84-4.13,2.86,0,4.27,3.14,8,3.14,3.48,0,7.72-3.63,10.11-3.63C427.22,88.92,424,93.54,423.91,94.54Zm-25.7,18.75c-1.85-5-.06-11-1.66-13.63,1,.32,1.88,1,3,.95C397.24,103.52,401,108.67,398.21,113.29Zm-1.57-50.57c-6.77-10.46.61-11.84,2.23-15.12C402.37,52.23,399.88,59.7,396.64,62.71Z" transform="translate(-18.39 -23.91)"/><path d="M398.88,47.6" transform="translate(-18.39 -23.91)"/><path class="cls-1" d="M485.72,111.82a3.42,3.42,0,0,0-2-1.38c-.31.78-3,3.14-3.73,3.63a10,10,0,0,1,2.83,1.71A10.17,10.17,0,0,0,485.72,111.82Z" transform="translate(-18.39 -23.91)"/><path class="cls-1" d="M495.63,83.78v0c-2.84-3.77-6.62-4.64-11.2-3.63-3.49.77-12-11-6-17.79,2.34-6.91,13.68-3.8,13.68,1.06,0,3.68-2.62,7.14-7.47,7.25-.81,2,1,2.77,2,3.92v0c7.09.14,8.85-1.45,8.85-1.45,3.5,0,2.08,7.86,9.74,7.86,1.67,0-.3-3-.3-7.49,0-3.31,1.08-4.59,1.08-8.34,0-20.43-42.41-23.86-46.47-.73C456,83.85,472.8,98.81,477.09,98.81c3.83,0,8.15-1.82,11.81,5.6h0c4.08,5.24,3.33,10.43-.54,15.86-4.73.23-7.37.53-9,.53-2.42,0-8.83-5.26-3.9-10.23.41-3.19,9.59-3,.09-8.08-5.79.29-6.55,5.15-9,.11-4.74-6.34-8-4.46-8-2.1,0,8.28-.52,13.53-.52,13.56,0,12.47,22.79,24.27,38,14.9,11.62-7.17,17.52-20.39,6.54-37C495.75,87.07,495.63,86,495.63,83.78Z" transform="translate(-18.39 -23.91)"/><path d="M512.38,96c-.59-1.46-5.13-7.82-6.57-8.62a2.11,2.11,0,0,0,1.7-.79c3-1.45,5.64-3,5.64-5.8a5.38,5.38,0,0,0-.32-1.75c-.78-2.26-.08-9-.08-11.17,0-39.85-60.46-37.19-60.46,3.86,0,7.6,5.83,17.59,5.83,17.88,0,2-7.58,2.94-7.58,6.52,0,2.39,2.22,7.13,2.22,12.74,0,2.72-.51,4-.51,5.92,0,7.9,13.65,22.85,29.77,22.85a38.11,38.11,0,0,0,6.14-.88l10.59-2.82C503.21,133.94,522.17,114.39,512.38,96ZM496,129c-15.18,9.37-38-2.43-38-14.9,0,0,.52-5.29.52-13.56,0-2.35,3.22-4.24,8,2.1,2.47,5,3.23.17,9-.11,9.5,5,.32,4.89-.09,8.08-4.93,5,1.48,10.23,3.9,10.23,1.64,0,4.28-.3,9-.53,3.87-5.43,4.62-10.62.54-15.86h0c-3.66-7.42-8-5.6-11.81-5.6-4.28,0-21.05-15-17.63-34.44,4.07-23.13,46.47-19.7,46.47.73,0,3.75-1.08,5-1.08,8.34,0,4.47,2,7.49.3,7.49-7.66,0-6.24-7.86-9.74-7.86,0,0-1.77,1.59-8.85,1.45v0c-1-1.14-2.76-1.88-2-3.92,4.85-.11,7.47-3.56,7.47-7.25,0-4.86-11.33-8-13.68-1.06-5.92,6.83,2.54,18.56,6,17.79,4.57-1,8.35-.14,11.2,3.63v0c0,2.22.12,3.29,6.92,8.18C513.52,108.57,507.62,121.79,496,129Zm-16.47-24.35h0Zm.45,9.45c.69-.48,3.42-2.84,3.73-3.63a3.42,3.42,0,0,1,2,1.38,10.17,10.17,0,0,1-2.91,4A10,10,0,0,0,480,114.06Zm3.93-46.14.9-5.33a3.42,3.42,0,0,1,2,1.38A10.17,10.17,0,0,1,483.92,67.93Z" transform="translate(-18.39 -23.91)"/><path d="M651.94,88.22c-13.13,0-17.69,43.17-2.32,33.11C655.27,117.63,654.13,88.22,651.94,88.22Zm-7,28.64c-1.36-7.11,2.08-18.65,3.84-18.53C651.42,105.53,645.68,120.74,644.94,116.86Z" transform="translate(-18.39 -23.91)"/><path d="M644.94,116.86" transform="translate(-18.39 -23.91)"/><path class="cls-1" d="M674.52,84.94c-5.14-7-.72-11.4-6.28-31a24,24,0,0,0-9.94-6.07l0-.18-15.57-.53c-1.9-1-16.93,4.49-16.93,23.09,0,3.39-2.12,9,2.68,9.33,2,.12,4.39-.69,6-3.9h0c2.42-6.29,6.78,4.19,11.34-1.75,3.65-4.77-7.89-8.25-3.33-16.35,1.57-4.86,2.17-5,8.07-1.78,3.36.84,5.09,20.2,0,22h0c-4,3.67-9.08,4.64-14,6-24.12,17.61-16.83,41.9,3,47.13,9.71,3.23,16.74-6.48,18.4-7,1.56-1.72,9.85,4.59,10.85,5.39,0,0,6.8-2.07,9.61-.62.14-.29-5.06-13.19-5.06-20.75C673.41,92.93,680.22,92.67,674.52,84.94Z" transform="translate(-18.39 -23.91)"/><path d="M681.7,122.05c.43-16.88-1.53-26,1.33-27.22s2.78-7.74-.59-10C674.19,79.36,685.08,41,648.82,41c-16.71,0-28.75,8.58-29.39,21.64-.17,3.57,1.3,5,2.32,10.1-.58,6.36-3.22,3.43-3.22,9.58.61,3.08,4.93,2.44,4,5.37-4.63,5.06-5.22,12.33-9.66,17.55-1.42,1.67,0,4.42,1,5.48,4.15,4.37,8.38,37.21,42.74,21.86,2-1.61,2.74-2.22,3.26-2.22,4,0,13.42,8.76,22.24,2.16C684.5,130.7,688.11,120,681.7,122.05Zm-12.84,7.25c-1-.8-9.29-7.11-10.85-5.39-1.66.5-8.69,10.2-18.4,7-19.86-5.23-27.15-29.52-3-47.13,5-1.34,10.08-2.31,14-6h0c5.06-1.77,3.33-21.14,0-22-5.9-3.21-6.5-3.08-8.07,1.78-4.55,8.1,7,11.58,3.33,16.35-4.55,5.95-8.92-4.54-11.34,1.75h0c-1.66,3.2-4.07,4-6,3.9-4.8-.29-2.68-5.94-2.68-9.33,0-18.6,15-24.09,16.93-23.09l15.57.53,0,.18a24,24,0,0,1,9.94,6.07c5.56,19.6,1.13,24,6.28,31,5.7,7.73-1.1,8-1.1,23,0,7.56,5.2,20.46,5.06,20.75C675.67,127.23,668.87,129.3,668.87,129.3Z" transform="translate(-18.39 -23.91)"/><path class="cls-1" d="M865.77,54.15c-1.45,0-1.21-.2-7.87-3.67-12.29-6.4-28.72-.25-32.92,13.45-1.16,3.79.36,11.25-1.77,16.94C819.81,90,819,88.75,820,90.5c7.51,12.76.29,34.25,26.88,34.25,9.77,0,15.19-6.57,16.2.45,4,28.13-17.5,20.77-17.5,14.82,0-5.56,5-6.62-3.25-6.62-5.72,0-7.78-5.15-11.58-5.15-4.41,0,5.62,24,21.25,24,19.33,0,22.08-17.88,23.44-29.45.35-3,2.56-6.14,2.56-6.54.13-10.19.21-9.88,0-10.53-2.1-5.8,7.06-13.94,3.52-17.31-4-3.83-6.06-25.53,0-34.21.71-1,1.6-2,1.6-3C883.07,43.5,868.92,54.15,865.77,54.15Z" transform="translate(-18.39 -23.91)"/><path d="M890.77,50c-2.13-5-6.33-6.47-11.68-6.44-4.34-.34-8.13.53-11,3.78a4.66,4.66,0,0,1-1,.1,9.38,9.38,0,0,1-5.19-2.33c-.41-.59-8.22-3.73-14-3.73-35.84,0-26.73,37.29-33,43.32-1.48,1.43-.49,10,.5,11,5.55,5.37-1.06,14.89,7.49,24.16,2.72,3-2.19,4.23-2.19,7.84,0,0,4.74,7.32,6.31,12.67,5.95,20.23,33.82,23.77,45.2,10,15-18.14,7-46.56,13.7-53.93.77-.85,1.19-11.12-.72-12.44-2.78-1.92-2.08-4.65-2.34-17.8,0-4.64,3.79-7.3,5.81-10.88.85-1.51,2.42-.75,2.42-2.72A16.54,16.54,0,0,0,890.77,50Zm-9.3,4.23c-6.07,8.69-4,30.38,0,34.21,3.55,3.37-5.62,11.51-3.52,17.31.24.65.15.34,0,10.53,0,.4-2.21,3.52-2.56,6.54-1.36,11.58-4.11,29.45-23.44,29.45-15.62,0-25.66-24-21.25-24,3.8,0,5.86,5.15,11.58,5.15,8.26,0,3.25,1.06,3.25,6.62,0,5.95,21.52,13.31,17.5-14.82-1-7-6.42-.45-16.2-.45-26.59,0-19.37-21.49-26.88-34.25-1-1.75-.18-.55,3.22-9.63,2.13-5.68.61-13.15,1.77-16.94,4.2-13.7,20.62-19.85,32.92-13.45,6.66,3.47,6.42,3.67,7.87,3.67,3.15,0,17.31-10.66,17.31-2.92C883.07,52.24,882.19,53.2,881.48,54.22ZM851.13,133s-.07-1.11-.07-1.08l-2.19-2.42a.54.54,0,0,1,.52-.6h.11a8,8,0,0,0,2.48.35c1.21,0,2.42-.18,3.62-.18,1.68,0,3,.22,3,2.51,0,1.57-1,8.17-4.56,8.17a2.08,2.08,0,0,1-2.08-1.62.67.67,0,0,1,.19-.48C850.83,136.25,851.3,134.92,851.13,133Z" transform="translate(-18.39 -23.91)"/></g></svg>